<?xml version="1.0" encoding="UTF-8"?>
<!-- Generated by Pixelmator Pro 2.4.2 -->
<svg width="360" height="360" viewBox="0 0 360 360" xmlns="http://www.w3.org/2000/svg" xmlns:xlink="http://www.w3.org/1999/xlink">
    <path id="Path" fill="#f6f6f6" stroke="none" d="M -0 85.019989 L 4.62 80.75 C 6.954353 82.199615 9.406299 83.450684 11.95 84.48999 L 10.75 94.730011 L 13.41 95.600006 L 18.459999 86.600006 C 21.08 87.25 23.799999 87.679993 26.58 87.880005 L 28.6 98 L 31.4 98 L 33.419998 87.880005 C 36.16 87.679993 38.880001 87.26001 41.540001 86.600006 L 46.59 95.589996 L 49.25 94.730011 L 48.049999 84.48999 C 50.599998 83.459991 53.049999 82.200012 55.380001 80.75 L 62.959999 87.75 L 65.220001 86.100006 L 60.919998 76.720001 C 63.014294 74.95462 64.95462 73.014282 66.720001 70.919983 L 76.099998 75.220001 L 77.75 72.959991 L 70.75 65.380005 C 72.199623 63.045654 73.450684 60.593689 74.489998 58.049988 L 84.730003 59.25 L 85.599998 56.589996 L 76.599998 51.540009 C 77.257736 48.874847 77.685966 46.158264 77.879997 43.419983 L 88 41.399994 L 88 38.600006 L 77.879997 36.580017 C 77.68 33.839996 77.260002 31.119995 76.599998 28.459991 L 85.589996 23.410004 L 84.730003 20.75 L 74.489998 21.950012 C 73.459999 19.399994 72.199997 16.950012 70.75 14.619995 L 77.75 7.040009 L 76.099998 4.779999 L 66.720001 9.079987 C 64.95462 6.985718 63.014294 5.04538 60.919998 3.279999 L 62.419998 0 L 64.580002 0 L 63.330002 2.720001 C 64.718803 3.962494 66.037506 5.281189 67.279999 6.670013 L 76.779999 2.309998 L 80.300003 7.160004 L 73.220001 14.839996 C 74.160004 16.440002 75.010002 18.109985 75.760002 19.820007 L 86.139999 18.609985 L 87.989998 24.309998 L 78.879997 29.429993 C 79.269997 31.230011 79.559998 33.080017 79.75 34.950012 L 90 37 L 90 43 L 79.75 45.049988 C 79.563339 46.904816 79.272881 48.747681 78.879997 50.570007 L 87.989998 55.690002 L 86.139999 61.390015 L 75.760002 60.179993 C 75.010002 61.880005 74.160004 63.549988 73.220001 65.160004 L 80.300003 72.839996 L 76.779999 77.690002 L 67.279999 73.330017 C 66.037506 74.718811 64.718803 76.037506 63.330002 77.279999 L 67.690002 86.779999 L 62.84 90.299988 L 55.16 83.220001 C 53.560001 84.160004 51.889999 85.01001 50.18 85.76001 L 51.389999 96.140015 L 45.689999 97.98999 L 40.57 88.880005 C 38.77 89.269989 36.919998 89.559998 35.049999 89.75 L 33 100 L 27 100 L 24.950001 89.75 C 23.095194 89.563354 21.252304 89.272888 19.43 88.880005 L 14.31 97.98999 L 8.61 96.140015 L 9.82 85.76001 C 8.12 85.01001 6.45 84.160004 4.84 83.220001 L -0 87.679993 L -0 85.019989 Z M -0 52.700012 L -0 27.299988 L 8.38 32.140015 C 6.530286 37.216766 6.530286 42.783234 8.38 47.859985 L -0 52.700012 Z M -0 13.540009 C 6.668508 5.966217 15.958509 1.199738 26 0.200012 L 26 17.350006 C 20.676939 18.286774 15.854401 21.069824 12.38 25.209991 L -0 18.059998 L -0 13.540009 Z M -0 66.459991 L -0 61.940002 L 12.38 54.790009 C 15.854401 58.930176 20.676939 61.713226 26 62.649994 L 26 79.799988 C 15.958509 78.800262 6.668508 74.033783 -0 66.459991 Z M 34 79.799988 L 34 62.649994 C 39.323059 61.713226 44.145599 58.930176 47.619999 54.790009 L 62.470001 63.369995 C 55.775291 72.676025 45.407047 78.659546 34 79.799988 Z M 66.480003 56.440002 L 51.619999 47.859985 C 53.469715 42.783234 53.469715 37.216766 51.619999 32.140015 L 66.480003 23.559998 C 68.808846 28.727417 70.008865 34.332062 70 40 C 70.007637 45.667816 68.807671 51.272217 66.480003 56.440002 Z M 62.470001 16.640015 L 47.619999 25.200012 C 44.144016 21.063538 39.321667 18.284149 34 17.350006 L 34 0.200012 C 45.407047 1.340454 55.775291 7.323975 62.470001 16.630005 L 62.470001 16.640015 Z M -0 50.380005 L 5.98 46.929993 C 4.670437 42.395996 4.670437 37.583984 5.98 33.049988 L -0 29.600006 L -0 50.380005 Z M 0.5 16.029999 L 11.98 22.660004 C 15.25 19.26001 19.42 16.859985 24 15.720001 L 24 2.470001 C 14.762216 3.943237 6.393714 8.775604 0.5 16.040009 L 0.5 16.029999 Z M 0.5 63.950012 C 6.392046 71.218109 14.760759 76.054169 24 77.529999 L 24 64.279999 C 19.416859 63.146271 15.249047 60.73645 11.98 57.330017 L 0.5 63.959991 L 0.5 63.950012 Z M 36 77.529999 C 45.237785 76.056763 53.606285 71.224365 59.5 63.959991 L 48.02 57.330017 C 44.750954 60.73645 40.583141 63.146271 36 64.279999 L 36 77.529999 Z M 65.5 53.570007 C 68.849243 44.833313 68.849243 35.166687 65.5 26.429993 L 54.02 33.059998 C 55.329563 37.593994 55.329563 42.406006 54.02 46.940002 L 65.510002 53.570007 L 65.5 53.570007 Z M 59.5 16.040009 C 53.606285 8.775604 45.237785 3.943237 36 2.470001 L 36 15.720001 C 40.66 16.869995 44.799999 19.320007 48.02 22.670013 L 59.5 16.040009 Z M 30 54 C 22.268013 54 16 47.731995 16 40 C 16 32.268005 22.268013 26 30 26 C 37.731987 26 44 32.268005 44 40 C 44 47.731995 37.731987 54 30 54 Z M 30 52 C 36.627419 52 42 46.627411 42 40 C 42 33.372589 36.627419 28 30 28 C 23.372583 28 18 33.372589 18 40 C 18 46.627411 23.372583 52 30 52 Z M 30 50 C 24.477152 50 20 45.522858 20 40 C 20 34.477142 24.477152 30 30 30 C 35.522846 30 40 34.477142 40 40 C 40 45.522858 35.522846 50 30 50 Z M 30 48 C 34.418278 48 38 44.418274 38 40 C 38 35.581726 34.418278 32 30 32 C 25.581722 32 22 35.581726 22 40 C 22 44.418274 25.581722 48 30 48 Z M 107.470001 93.169983 L 105.849998 87.200012 L 111.519997 85.140015 L 114.129997 90.779999 C 115.220001 90.529999 116.330002 90.339996 117.459999 90.200012 L 117.980003 84 L 124.019997 84 L 124.540001 90.200012 C 125.669998 90.339996 126.779999 90.529999 127.870003 90.779999 L 130.470001 85.140015 L 136.149994 87.200012 L 134.529999 93.169983 C 135.550003 93.679993 136.529999 94.23999 137.479996 94.859985 L 141.830002 90.480011 L 146.449997 94.359985 L 142.919998 99.359985 C 143.720001 100.200012 144.449997 101.070007 145.149994 101.980011 L 150.669998 99.380005 L 153.690002 104.610001 L 148.710007 108.070007 C 149.169998 109.130005 149.570007 110.209991 149.910004 111.320007 L 155.929993 110.779999 L 156.979996 116.720001 L 151.139999 118.26001 C 151.210007 119.419998 151.210007 120.580002 151.139999 121.73999 L 156.979996 123.279999 L 155.929993 129.220001 L 149.910004 128.679993 C 149.570007 129.779999 149.169998 130.880005 148.710007 131.929993 L 153.690002 135.389999 L 150.669998 140.610001 L 145.149994 138.009995 C 144.449997 138.929993 143.710007 139.809998 142.919998 140.630005 L 146.449997 145.630005 L 141.830002 149.520004 L 137.479996 145.139999 C 136.529175 145.758286 135.544281 146.32251 134.529999 146.830002 L 136.149994 152.800003 L 130.479996 154.860001 L 127.870003 149.220001 C 126.779999 149.470001 125.669998 149.660004 124.540001 149.800003 L 124.019997 156 L 117.980003 156 L 117.459999 149.800003 C 116.340065 149.668839 115.228333 149.475204 114.129997 149.220001 L 111.529999 154.860001 L 105.849998 152.800003 L 107.470001 146.830002 C 106.459999 146.330002 105.470001 145.759995 104.519997 145.139999 L 100.169998 149.520004 L 95.550003 145.639999 L 99.080002 140.639999 C 98.290932 139.806656 97.546555 138.932098 96.849998 138.020004 L 91.330002 140.619995 L 88.309998 135.389999 L 93.290001 131.929993 C 92.827019 130.870972 92.426338 129.785782 92.089996 128.679993 L 86.07 129.220001 L 85.019997 123.279999 L 90.860001 121.73999 C 90.793289 120.580963 90.793289 119.419037 90.860001 118.26001 L 85.019997 116.720001 L 86.07 110.779999 L 92.089996 111.320007 C 92.43 110.220001 92.830002 109.119995 93.290001 108.070007 L 88.309998 104.610001 L 91.330002 99.390015 L 96.849998 101.98999 C 97.550003 101.070007 98.290001 100.190002 99.080002 99.369995 L 95.550003 94.369995 L 100.169998 90.480011 L 104.519997 94.859985 C 105.470818 94.24173 106.455711 93.67749 107.470001 93.169983 Z M 122.669998 92.049988 L 122.169998 86 L 119.830002 86 L 119.330002 92.049988 C 117.150002 92.179993 115.029999 92.549988 113.010002 93.149994 L 110.470001 87.649994 L 108.269997 88.450012 L 109.870003 94.299988 C 107.899605 95.153046 106.033981 96.230133 104.309998 97.51001 L 100.040001 93.209991 L 98.25 94.709991 L 101.75 99.660004 C 100.19355 101.137512 98.811234 102.788269 97.629997 104.580002 L 92.129997 101.98999 L 90.970001 104.01001 L 95.949997 107.470001 C 94.986305 109.388306 94.248047 111.411804 93.75 113.5 L 87.720001 112.949997 L 87.32 115.25 L 93.18 116.790009 C 92.936478 118.923065 92.936478 121.076935 93.18 123.209991 L 87.309998 124.76001 L 87.709999 127.059998 L 93.760002 126.5 C 94.258049 128.588196 94.9963 130.611679 95.959999 132.529999 L 90.959999 136 L 92.129997 138.020004 L 97.620003 135.429993 C 98.801231 137.221741 100.183548 138.872467 101.739998 140.350006 L 98.239998 145.309998 L 100.029999 146.809998 L 104.300003 142.5 C 106.023979 143.779861 107.889603 144.856949 109.860001 145.710007 L 108.260002 151.559998 L 110.459999 152.360001 L 113 146.860001 C 115.019997 147.460007 117.139999 147.830002 119.32 147.960007 L 119.82 154.009995 L 122.160004 154.009995 L 122.660004 147.960007 C 124.839996 147.830002 126.959999 147.460007 128.979996 146.860001 L 131.520004 152.360001 L 133.720001 151.559998 L 132.119995 145.710007 C 134.090393 144.856949 135.956024 143.779861 137.679993 142.5 L 141.949997 146.800003 L 143.740005 145.300003 L 140.240005 140.350006 C 141.796448 138.872467 143.178772 137.221741 144.360001 135.429993 L 149.860001 138.020004 L 151.020004 136 L 146.039993 132.539993 C 147.003693 130.621689 147.741959 128.598206 148.240005 126.51001 L 154.270004 127.059998 L 154.669998 124.76001 L 148.809998 123.220001 C 149.053528 121.086929 149.053528 118.933075 148.809998 116.800003 L 154.679993 115.25 L 154.279999 112.949997 L 148.229996 113.51001 C 147.731949 111.421799 146.993698 109.398315 146.029999 107.480011 L 151.020004 104.019989 L 149.850006 102 L 144.360001 104.589996 C 143.178772 102.798279 141.796448 101.147522 140.240005 99.669983 L 143.740005 94.709991 L 141.949997 93.209991 L 137.679993 97.519989 C 135.956024 96.240143 134.090393 95.163055 132.119995 94.309998 L 133.720001 88.459991 L 131.520004 87.660004 L 128.979996 93.160004 C 126.959999 92.559998 124.839996 92.190002 122.660004 92.059998 L 122.669998 92.049988 Z M 121 128 C 116.581718 128 113 124.418274 113 120 C 113 115.581726 116.581718 112 121 112 C 125.418282 112 129 115.581726 129 120 C 129 124.418274 125.418282 128 121 128 Z M 121 126 C 124.313705 126 127 123.313705 127 120 C 127 116.686295 124.313705 114 121 114 C 117.686295 114 115 116.686295 115 120 C 115 123.313705 117.686295 126 121 126 Z M 121 108 C 118.238579 108 116 105.761414 116 103 C 116 100.238586 118.238579 98 121 98 C 123.761421 98 126 100.238586 126 103 C 126 105.761414 123.761421 108 121 108 Z M 129.490005 111.51001 C 127.501778 109.59082 127.445808 106.423218 129.365005 104.434998 C 131.284195 102.446777 134.451782 102.390808 136.440002 104.309998 C 138.428223 106.229187 138.484192 109.396774 136.565002 111.38501 C 134.645813 113.37323 131.478226 113.429199 129.490005 111.51001 Z M 133 120 C 133 117.238586 135.238571 115 138 115 C 140.761429 115 143 117.238586 143 120 C 143 122.761414 140.761429 125 138 125 C 135.238571 125 133 122.761414 133 120 Z M 129.490005 128.490005 C 131.409195 126.50177 134.576782 126.445801 136.565002 128.365005 C 138.553223 130.284195 138.609192 133.451782 136.690002 135.440002 C 134.770813 137.428223 131.603226 137.484192 129.615005 135.565002 C 127.626778 133.645813 127.570808 130.478226 129.490005 128.490005 Z M 121 132 C 123.761421 132 126 134.238571 126 137 C 126 139.761429 123.761421 142 121 142 C 118.238579 142 116 139.761429 116 137 C 116 134.238571 118.238579 132 121 132 Z M 112.510002 128.490005 C 114.498222 130.409195 114.554192 133.576782 112.635002 135.565002 C 110.715813 137.553223 107.548225 137.609192 105.559998 135.690002 C 103.571777 133.770813 103.515808 130.603226 105.434998 128.615005 C 107.354187 126.62677 110.521774 126.570801 112.510002 128.490005 Z M 109 120 C 109 122.761414 106.761421 125 104 125 C 101.238579 125 99 122.761414 99 120 C 99 117.238586 101.238579 115 104 115 C 106.761421 115 109 117.238586 109 120 Z M 112.510002 111.51001 C 110.590813 113.49823 107.423225 113.554199 105.434998 111.63501 C 103.446777 109.71582 103.390808 106.548218 105.309998 104.559998 C 107.229187 102.571777 110.396774 102.515808 112.385002 104.434998 C 114.373222 106.354187 114.429192 109.521774 112.510002 111.51001 Z M 121 106 C 122.656853 106 124 104.65686 124 103 C 124 101.34314 122.656853 100 121 100 C 119.343147 100 118 101.34314 118 103 C 118 104.65686 119.343147 106 121 106 Z M 130.899994 110.100006 C 132.029419 111.312256 133.927734 111.379425 135.139999 110.25 C 136.352264 109.120575 136.419418 107.22226 135.289993 106.01001 C 134.160583 104.797729 132.262268 104.730576 131.050003 105.860001 C 129.837738 106.989426 129.770584 108.887726 130.899994 110.100006 Z M 135 120 C 135 121.65686 136.34314 123 138 123 C 139.65686 123 141 121.65686 141 120 C 141 118.34314 139.65686 117 138 117 C 136.34314 117 135 118.34314 135 120 Z M 130.899994 129.899994 C 129.687729 131.029419 129.620575 132.927734 130.75 134.139999 C 131.879425 135.352264 133.77774 135.419418 134.990005 134.289993 C 136.202271 133.160583 136.269424 131.262268 135.139999 130.050003 C 134.010574 128.837738 132.112259 128.770584 130.899994 129.899994 Z M 121 134 C 119.343147 134 118 135.34314 118 137 C 118 138.65686 119.343147 140 121 140 C 122.656853 140 124 138.65686 124 137 C 124 135.34314 122.656853 134 121 134 Z M 111.099998 129.899994 C 109.970581 128.687729 108.072266 128.620575 106.860001 129.75 C 105.647736 130.879425 105.580574 132.77774 106.709999 133.990005 C 107.839424 135.202271 109.737732 135.269424 110.949997 134.139999 C 112.162262 133.010574 112.229424 131.112259 111.099998 129.899994 Z M 107 120 C 107 118.34314 105.656853 117 104 117 C 102.343147 117 101 118.34314 101 120 C 101 121.65686 102.343147 123 104 123 C 105.656853 123 107 121.65686 107 120 Z M 111.099998 110.100006 C 112.312263 108.970581 112.379425 107.072266 111.25 105.860001 C 110.120575 104.647736 108.222267 104.580566 107.010002 105.709991 C 105.797737 106.839417 105.730576 108.737732 106.860001 109.949997 C 107.989426 111.162262 109.887733 111.229431 111.099998 110.100006 Z M 240.520004 103.149994 L 240.520004 103.160004 C 241.389999 103.230011 242.259995 103.330017 243.119995 103.459991 L 244.619995 99.549988 L 246.559998 95.910004 L 250.449997 96.880005 L 250.449997 101.01001 L 249.949997 105.139999 C 250.779999 105.419998 251.589996 105.730011 252.389999 106.070007 L 254.809998 102.640015 L 257.570007 99.570007 L 261.109985 101.450012 L 260.109985 105.449997 L 258.619995 109.339996 C 259.350006 109.809998 260.070007 110.309998 260.769989 110.830002 L 263.959991 108.070007 L 267.380005 105.769989 L 270.350006 108.440002 L 268.420013 112.089996 L 266.040009 115.48999 C 266.640015 116.130005 267.23999 116.790009 267.799988 117.480011 L 271.480011 115.540009 L 275.329987 114.059998 L 277.619995 117.339996 L 274.920013 120.449997 L 271.799988 123.269989 C 272.230011 124.029999 272.640015 124.800003 273.019989 125.589996 L 277.059998 124.589996 L 281.160004 124.089996 L 282.589996 127.820007 L 279.220001 130.190002 L 275.519989 132.169998 C 275.75 133.009995 275.959991 133.850006 276.140015 134.710007 L 280.309998 134.720001 L 284.410004 135.220001 L 284.890015 139.190002 L 281.040009 140.669998 L 276.980011 141.690002 C 277.01001 142.559998 277.01001 143.440002 276.980011 144.309998 L 281.040009 145.330002 L 284.890015 146.809998 L 284.410004 150.779999 L 280.309998 151.289993 L 276.140015 151.289993 C 275.959991 152.149994 275.75 153 275.51001 153.830002 L 279.209991 155.809998 L 282.589996 158.179993 L 281.160004 161.910004 L 277.059998 161.410004 L 273.019989 160.410004 C 272.640015 161.199997 272.230011 161.970001 271.799988 162.729996 L 274.929993 165.550003 L 277.630005 168.660004 L 275.329987 171.940002 L 271.480011 170.460007 L 267.799988 168.509995 C 267.237518 169.197571 266.650482 169.86467 266.040009 170.509995 L 268.420013 173.919998 L 270.350006 177.559998 L 267.380005 180.229996 L 263.959991 177.929993 L 260.769989 175.169998 C 260.06958 175.686539 259.352539 176.18013 258.619995 176.649994 L 260.100006 180.550003 L 261.100006 184.550003 L 257.570007 186.429993 L 254.809998 183.360001 L 252.389999 179.929993 C 251.589996 180.259995 250.779999 180.580002 249.940002 180.860001 L 250.440002 184.990005 L 250.440002 189.119995 L 246.559998 190.089996 L 244.619995 186.440002 L 243.119995 182.539993 C 242.259995 182.669998 241.389999 182.770004 240.520004 182.850006 L 240 187 L 239 191 L 235 191 L 234 187 L 233.479996 182.839996 C 232.610107 182.770203 231.74292 182.670135 230.880005 182.539993 L 229.380005 186.449997 L 227.440002 190.089996 L 223.550003 189.119995 L 223.550003 184.990005 L 224.050003 180.860001 C 223.220001 180.580002 222.410004 180.270004 221.610001 179.929993 L 219.190002 183.360001 L 216.429993 186.429993 L 212.889999 184.550003 L 213.889999 180.550003 L 215.380005 176.660004 C 214.639999 176.190002 213.929993 175.690002 213.229996 175.169998 L 210.039993 177.929993 L 206.619995 180.229996 L 203.649994 177.559998 L 205.580002 173.910004 L 207.960007 170.509995 C 207.350006 169.860001 206.759995 169.199997 206.199997 168.520004 L 202.520004 170.460007 L 198.669998 171.940002 L 196.380005 168.660004 L 199.080002 165.550003 L 202.199997 162.729996 C 201.770004 161.970001 201.360001 161.199997 200.979996 160.410004 L 196.940002 161.410004 L 192.839996 161.910004 L 191.410004 158.179993 L 194.779999 155.809998 L 198.479996 153.830002 C 198.25 152.990005 198.039993 152.149994 197.860001 151.289993 L 193.690002 151.279999 L 189.589996 150.779999 L 189.110001 146.809998 L 192.960007 145.330002 L 197.020004 144.309998 C 196.990005 143.440002 196.990005 142.559998 197.020004 141.690002 L 192.960007 140.669998 L 189.110001 139.190002 L 189.589996 135.220001 L 193.690002 134.710007 L 197.860001 134.710007 C 198.039993 133.850006 198.25 133 198.490005 132.169998 L 194.789993 130.190002 L 191.410004 127.820007 L 192.839996 124.089996 L 196.940002 124.589996 L 200.979996 125.589996 C 201.360001 124.800003 201.770004 124.029999 202.199997 123.269989 L 199.070007 120.449997 L 196.369995 117.339996 L 198.669998 114.059998 L 202.520004 115.540009 L 206.199997 117.48999 C 206.762466 116.802429 207.349518 116.135315 207.960007 115.48999 L 205.580002 112.080002 L 203.649994 108.440002 L 206.619995 105.769989 L 210.039993 108.070007 L 213.229996 110.830002 C 213.929993 110.309998 214.639999 109.809998 215.380005 109.350006 L 213.899994 105.449997 L 212.899994 101.450012 L 216.429993 99.570007 L 219.190002 102.640015 L 221.610001 106.070007 C 222.410004 105.73999 223.220001 105.419998 224.059998 105.139999 L 223.559998 101.01001 L 223.559998 96.880005 L 227.440002 95.910004 L 229.380005 99.559998 L 230.880005 103.459991 C 231.740005 103.330017 232.610001 103.230011 233.479996 103.149994 L 234 99 L 235 95 L 239 95 L 240 99 L 240.520004 103.149994 Z M 226.220001 106.550003 C 224.389999 107.089996 222.619995 107.76001 220.919998 108.550003 L 217.419998 103.580017 L 216.039993 102.049988 L 215.160004 102.519989 L 215.660004 104.519989 L 217.820007 110.190002 C 216.188904 111.146179 214.631256 112.222504 213.160004 113.410004 L 208.550003 109.410004 L 206.839996 108.26001 L 206.089996 108.929993 L 207.059998 110.75 L 210.529999 115.730011 C 209.161591 117.060059 207.894714 118.490723 206.740005 120.01001 L 201.369995 117.169998 L 199.449997 116.429993 L 198.880005 117.25 L 200.229996 118.809998 L 204.75 122.899994 C 203.746735 124.498611 202.864273 126.169922 202.110001 127.899994 L 196.220001 126.449997 L 194.179993 126.199997 L 193.820007 127.139999 L 195.509995 128.320007 L 200.869995 131.190002 C 200.282883 132.986938 199.831619 134.825439 199.520004 136.690002 L 193.440002 136.699997 L 191.399994 136.949997 L 191.279999 137.949997 L 193.199997 138.679993 L 199.100006 140.179993 C 198.961761 142.060791 198.961761 143.949203 199.100006 145.830002 L 193.199997 147.320007 L 191.279999 148.059998 L 191.399994 149.050003 L 193.440002 149.300003 L 199.520004 149.309998 C 199.830002 151.169998 200.289993 153.009995 200.869995 154.809998 L 195.509995 157.679993 L 193.809998 158.860001 L 194.179993 159.800003 L 196.220001 159.550003 L 202.119995 158.089996 C 202.870605 159.823196 203.749725 161.497864 204.75 163.100006 L 200.229996 167.199997 L 198.880005 168.75 L 199.449997 169.570007 L 201.369995 168.830002 L 206.740005 165.990005 C 207.897919 167.509644 209.168137 168.940308 210.539993 170.270004 L 207.059998 175.25 L 206.089996 177.070007 L 206.839996 177.740005 L 208.539993 176.589996 L 213.160004 172.589996 C 214.631256 173.777496 216.188904 174.853806 217.820007 175.809998 L 215.649994 181.479996 L 215.149994 183.479996 L 216.039993 183.949997 L 217.419998 182.419998 L 220.919998 177.440002 C 222.619995 178.240005 224.389999 178.910004 226.220001 179.440002 L 225.490005 185.479996 L 225.490005 187.539993 L 226.460007 187.779999 L 227.429993 185.960007 L 229.630005 180.279999 C 231.460007 180.639999 233.330002 180.880005 235.25 180.960007 L 236 187 L 236.5 189 L 237.5 189 L 238 187 L 238.75 180.960007 C 240.637573 180.87265 242.516068 180.645355 244.369995 180.279999 L 246.570007 185.960007 L 247.539993 187.779999 L 248.509995 187.539993 L 248.509995 185.479996 L 247.779999 179.449997 C 249.610001 178.910004 251.380005 178.240005 253.080002 177.449997 L 256.579987 182.419998 L 257.959991 183.949997 L 258.839996 183.479996 L 258.339996 181.479996 L 256.179993 175.809998 C 257.811096 174.853806 259.368744 173.777496 260.839996 172.589996 L 265.450012 176.589996 L 267.160004 177.740005 L 267.910004 177.070007 L 266.940002 175.25 L 263.470001 170.270004 C 264.838409 168.939957 266.105286 167.509277 267.26001 165.990005 L 272.630005 168.830002 L 274.549988 169.570007 L 275.119995 168.75 L 273.769989 167.190002 L 269.25 163.100006 C 270.25 161.5 271.130005 159.830002 271.890015 158.100006 L 277.779999 159.550003 L 279.820007 159.800003 L 280.179993 158.860001 L 278.48999 157.679993 L 273.130005 154.809998 C 273.718353 153.013428 274.169647 151.17482 274.480011 149.309998 L 280.559998 149.300003 L 282.600006 149.050003 L 282.720001 148.050003 L 280.799988 147.320007 L 274.899994 145.820007 C 275.040009 143.940002 275.040009 142.050003 274.899994 140.169998 L 280.799988 138.679993 L 282.720001 137.940002 L 282.600006 136.949997 L 280.559998 136.699997 L 274.480011 136.690002 C 274.169647 134.82518 273.718353 132.986572 273.130005 131.190002 L 278.48999 128.320007 L 280.190002 127.139999 L 279.820007 126.199997 L 277.779999 126.449997 L 271.880005 127.910004 C 271.129395 126.176788 270.250275 124.502136 269.25 122.899994 L 273.769989 118.800003 L 275.119995 117.25 L 274.549988 116.429993 L 272.630005 117.169998 L 267.26001 120.01001 C 266.102081 118.490356 264.831848 117.059692 263.459991 115.730011 L 266.940002 110.75 L 267.910004 108.929993 L 267.160004 108.26001 L 265.459991 109.410004 L 260.839996 113.410004 C 259.368744 112.222504 257.811096 111.146179 256.179993 110.190002 L 258.350006 104.519989 L 258.850006 102.519989 L 257.959991 102.049988 L 256.579987 103.580017 L 253.080002 108.559998 C 251.380005 107.76001 249.610001 107.089996 247.779999 106.559998 L 248.509995 100.519989 L 248.509995 98.459991 L 247.539993 98.220001 L 246.570007 100.040009 L 244.369995 105.720001 C 242.539993 105.360001 240.669998 105.119995 238.75 105.040009 L 238 99 L 237.5 97 L 236.5 97 L 236 99 L 235.25 105.040009 C 233.330002 105.130005 231.449997 105.360001 229.630005 105.720001 L 227.429993 100.040009 L 226.460007 98.220001 L 225.490005 98.459991 L 225.490005 100.519989 L 226.220001 106.550003 Z M 220.369995 112.199997 C 225.177811 109.591812 230.53244 108.152954 236 108 L 236 114 C 231.585754 114.146606 227.264359 115.306503 223.369995 117.389999 L 220.369995 112.190002 L 220.369995 112.199997 Z M 223.169998 113.029999 L 224.169998 114.769989 C 227.278183 113.35437 230.600174 112.465576 234 112.139999 L 234 110.130005 C 230.25032 110.467957 226.586807 111.448944 223.169998 113.029999 Z M 218.639999 113.199997 L 221.639999 118.399994 C 217.89978 120.740234 214.74025 123.89978 212.399994 127.639999 L 207.199997 124.639999 C 210.0728 119.9897 213.9897 116.072815 218.639999 113.199997 Z M 217.970001 116.040009 C 214.895981 118.214386 212.214386 120.895996 210.039993 123.970001 L 211.779999 124.970001 C 213.769257 122.191681 216.201691 119.759262 218.979996 117.769989 L 217.970001 116.040009 Z M 206.199997 126.369995 L 206.190002 126.369995 L 211.389999 129.369995 C 209.306503 133.264359 208.146606 137.585754 208 142 L 202 142 C 202.152954 136.53244 203.591812 131.177811 206.199997 126.369995 Z M 207.029999 129.169998 C 205.448944 132.586807 204.467957 136.25032 204.130005 140 L 206.139999 140 C 206.465591 136.600174 207.354385 133.278183 208.770004 130.169998 L 207.029999 129.169998 Z M 202.009995 144 L 208.020004 144 C 208.169998 148.410004 209.320007 152.729996 211.399994 156.630005 L 206.199997 159.630005 C 203.595291 154.821335 202.159866 149.466751 202.009995 144 Z M 204.130005 146 C 204.466827 149.753082 205.447845 153.420074 207.029999 156.839996 L 208.770004 155.839996 C 207.353317 152.728683 206.464493 149.403229 206.139999 146 L 204.130005 146 Z M 207.199997 161.360001 L 212.399994 158.360001 C 214.740005 162.100006 217.899994 165.259995 221.639999 167.600006 L 218.639999 172.800003 C 213.9897 169.9272 210.0728 166.0103 207.199997 161.360001 Z M 210.039993 162.029999 C 212.214386 165.104019 214.895981 167.785614 217.970001 169.960007 L 218.970001 168.220001 C 216.191681 166.230743 213.759262 163.798309 211.770004 161.020004 L 210.039993 162.029999 Z M 220.369995 173.800003 L 220.369995 173.809998 L 223.369995 168.610001 C 227.26503 170.691833 231.586014 171.851624 236 172 L 236 178 C 230.53244 177.847046 225.177811 176.408188 220.369995 173.800003 Z M 223.169998 172.970001 C 226.586807 174.551056 230.25032 175.532043 234 175.869995 L 234 173.860001 C 230.600174 173.534409 227.278183 172.645615 224.169998 171.229996 L 223.169998 172.970001 Z M 238 177.990005 L 238 171.979996 C 242.410004 171.830002 246.729996 170.679993 250.630005 168.600006 L 253.630005 173.800003 C 248.821335 176.404709 243.466751 177.840134 238 177.990005 Z M 240 175.869995 C 243.753082 175.533173 247.420074 174.552155 250.839996 172.970001 L 249.839996 171.229996 C 246.728683 172.646683 243.403229 173.535507 240 173.860001 L 240 175.869995 Z M 255.360001 172.800003 L 252.360001 167.600006 C 256.100006 165.259995 259.26001 162.100006 261.600006 158.360001 L 266.799988 161.360001 C 263.927185 166.0103 260.010284 169.9272 255.360001 172.800003 Z M 256.029999 169.960007 C 259.104004 167.785614 261.785614 165.104019 263.959991 162.029999 L 262.220001 161.029999 C 260.230743 163.808319 257.798309 166.240738 255.020004 168.229996 L 256.029999 169.960007 Z M 267.799988 159.630005 L 267.809998 159.630005 L 262.609985 156.630005 C 264.691833 152.73497 265.851624 148.413986 266 144 L 272 144 C 271.847046 149.46756 270.408173 154.822189 267.799988 159.630005 Z M 266.970001 156.830002 C 268.551056 153.413193 269.532043 149.74968 269.869995 146 L 267.859985 146 C 267.534424 149.399826 266.64563 152.721817 265.230011 155.830002 L 266.970001 156.830002 Z M 271.98999 142 L 265.980011 142 C 265.834717 137.586807 264.678345 133.265869 262.600006 129.369995 L 267.799988 126.369995 C 270.404694 131.178665 271.840118 136.533249 271.98999 142 Z M 269.869995 140 C 269.533173 136.246918 268.552155 132.579926 266.970001 129.160004 L 265.230011 130.160004 C 266.646698 133.271317 267.535492 136.596771 267.859985 140 L 269.869995 140 Z M 266.799988 124.639999 L 261.600006 127.639999 C 259.259766 123.89978 256.10022 120.740234 252.360001 118.399994 L 255.360001 113.199997 C 260.010284 116.072815 263.927185 119.9897 266.799988 124.639999 Z M 263.959991 123.970001 C 261.785614 120.895996 259.104004 118.214386 256.029999 116.040009 L 255.029999 117.779999 C 257.808319 119.769257 260.240753 122.201691 262.230011 124.980011 L 263.959991 123.970001 Z M 238 108 C 243.466751 108.149872 248.821335 109.585297 253.630005 112.190002 L 250.630005 117.389999 C 246.734131 115.311646 242.413193 114.155289 238 114.01001 L 238 108 Z M 250.839996 113.019989 C 247.420074 111.437836 243.753082 110.456818 240 110.119995 L 240 112.130005 C 243.399826 112.455582 246.721817 113.344376 249.830002 114.76001 L 250.830002 113.019989 L 250.839996 113.019989 Z M 237 156 C 229.820297 156 224 150.179703 224 143 C 224 135.820297 229.820297 130 237 130 C 244.179703 130 250 135.820297 250 143 C 250 150.179703 244.179703 156 237 156 Z M 237 154 C 243.075134 154 248 149.075134 248 143 C 248 136.924866 243.075134 132 237 132 C 230.924866 132 226 136.924866 226 143 C 226 149.075134 230.924866 154 237 154 Z M 137.539993 0 L 194.460007 0 L 193.720001 1.029999 C 194.289993 1.730011 194.839996 2.429993 195.360001 3.170013 L 203.110001 0.269989 L 205.110001 3.730011 L 198.729996 8.980011 C 199.100006 9.799988 199.449997 10.630005 199.759995 11.480011 L 207.979996 10.679993 L 209.020004 14.540009 L 201.5 17.970001 C 201.649994 18.850006 201.759995 19.73999 201.850006 20.640015 L 210 22 L 210 26 L 201.850006 27.359985 C 201.759995 28.26001 201.649994 29.160004 201.5 30.029999 L 209.020004 33.459991 L 207.979996 37.320007 L 199.759995 36.519989 C 199.449997 37.369995 199.100006 38.200012 198.729996 39.019989 L 205.110001 44.269989 L 203.110001 47.730011 L 195.360001 44.830017 C 194.839996 45.570007 194.289993 46.279999 193.720001 46.970001 L 198.520004 53.700012 L 195.699997 56.529999 L 188.970001 51.730011 C 188.270004 52.290009 187.570007 52.839996 186.830002 53.359985 L 189.729996 61.109985 L 186.270004 63.109985 L 181.020004 56.730011 C 180.199997 57.100006 179.369995 57.450012 178.520004 57.76001 L 179.320007 65.980011 L 175.460007 67.019989 L 172.029999 59.5 C 171.149994 59.649994 170.259995 59.76001 169.360001 59.850006 L 168 68 L 164 68 L 162.639999 59.850006 C 161.740005 59.76001 160.839996 59.649994 159.970001 59.5 L 156.539993 67.019989 L 152.679993 65.980011 L 153.479996 57.76001 C 152.630005 57.450012 151.800003 57.100006 150.979996 56.730011 L 145.729996 63.109985 L 142.270004 61.109985 L 145.169998 53.359985 C 144.436523 52.840149 143.722687 52.293091 143.029999 51.720001 L 136.300003 56.519989 L 133.470001 53.700012 L 138.270004 46.970001 C 137.710007 46.269989 137.160004 45.570007 136.639999 44.830017 L 128.889999 47.730011 L 126.889999 44.269989 L 133.270004 39.019989 C 132.899994 38.200012 132.550003 37.369995 132.240005 36.519989 L 124.019997 37.320007 L 122.980003 33.459991 L 130.5 30.029999 C 130.350006 29.149994 130.240005 28.26001 130.149994 27.359985 L 122 26 L 122 22 L 130.149994 20.640015 C 130.240005 19.73999 130.350006 18.839996 130.5 17.970001 L 122.980003 14.540009 L 124.019997 10.679993 L 132.240005 11.480011 C 132.550003 10.630005 132.899994 9.799988 133.270004 8.980011 L 126.889999 3.730011 L 128.889999 0.269989 L 136.639999 3.170013 C 137.160004 2.429993 137.710007 1.720001 138.279999 1.029999 L 137.539993 0 Z M 139.970001 0 L 140.800003 1.170013 C 139.555817 2.542542 138.42543 4.014069 137.419998 5.570007 L 129.789993 2.709991 L 129.460007 3.290009 L 135.75 8.470001 C 134.900925 10.115417 134.188522 11.82785 133.619995 13.589996 L 125.519997 12.809998 L 125.339996 13.450012 L 132.759995 16.820007 C 132.370682 18.630676 132.129883 20.470123 132.039993 22.320007 L 124 23.679993 L 124 24.339996 L 132.039993 25.679993 C 132.139999 27.559998 132.369995 29.399994 132.759995 31.179993 L 125.339996 34.559998 L 125.519997 35.200012 L 133.619995 34.419983 C 134.188904 36.182007 134.901291 37.894409 135.75 39.540009 L 129.460007 44.720001 L 129.789993 45.299988 L 137.419998 42.440002 C 138.419998 44 139.559998 45.470001 140.800003 46.839996 L 136.070007 53.470001 L 136.539993 53.940002 L 143.169998 49.209991 C 144.542542 50.454163 146.014053 51.584564 147.570007 52.589996 L 144.710007 60.220001 L 145.289993 60.549988 L 150.470001 54.26001 C 152.100006 55.100006 153.820007 55.820007 155.589996 56.390015 L 154.809998 64.48999 L 155.449997 64.669983 L 158.820007 57.25 C 160.610001 57.640015 162.449997 57.880005 164.320007 57.970001 L 165.669998 66.01001 L 166.330002 66.01001 L 167.669998 57.970001 C 169.550003 57.869995 171.389999 57.640015 173.169998 57.25 L 176.550003 64.669983 L 177.190002 64.48999 L 176.410004 56.390015 C 178.171997 55.821106 179.884399 55.108704 181.529999 54.26001 L 186.710007 60.549988 L 187.289993 60.220001 L 184.429993 52.589996 C 185.990005 51.589996 187.460007 50.450012 188.830002 49.209991 L 195.460007 53.940002 L 195.929993 53.470001 L 191.199997 46.839996 C 192.444183 45.467468 193.57457 43.995941 194.580002 42.440002 L 202.210007 45.299988 L 202.539993 44.720001 L 196.25 39.540009 C 197.099075 37.894562 197.811478 36.182129 198.380005 34.419983 L 206.479996 35.200012 L 206.660004 34.559998 L 199.240005 31.190002 C 199.630005 29.399994 199.869995 27.559998 199.960007 25.690002 L 208 24.339996 L 208 23.679993 L 199.960007 22.339996 C 199.860001 20.459991 199.630005 18.619995 199.240005 16.839996 L 206.660004 13.459991 L 206.479996 12.820007 L 198.380005 13.600006 C 197.811478 11.83786 197.099075 10.125427 196.25 8.480011 L 202.539993 3.299988 L 202.210007 2.720001 L 194.580002 5.579987 C 193.580002 4.019989 192.440002 2.549988 191.199997 1.179993 L 192.029999 0.01001 L 139.970001 0.01001 L 139.970001 0 Z M 137.149994 27 L 151.300003 27 C 152.506683 32.890259 157.109756 37.493317 163 38.700012 L 163 52.850006 C 149.355072 51.429413 138.570602 40.644928 137.149994 27 Z M 149.720001 0 L 163 0 L 163 9.299988 C 157.109756 10.506683 152.506683 15.109741 151.300003 21 L 137.149994 21 C 138.034912 12.487762 142.635696 4.801453 149.720001 0 Z M 169 52.850006 L 169 38.700012 C 174.890244 37.493317 179.493317 32.890259 180.699997 27 L 194.850006 27 C 193.429398 40.644928 182.644928 51.429413 169 52.850006 Z M 182.279999 0 C 189.364304 4.801453 193.965088 12.487762 194.850006 21 L 180.699997 21 C 179.493317 15.109741 174.890244 10.506683 169 9.299988 L 169 0 L 182.279999 0 Z M 139.460007 29 C 141.525284 39.927429 150.072571 48.474731 161 50.540009 L 161 40.25 C 155.62207 38.588257 151.411728 34.37793 149.75 29 L 139.460007 29 Z M 153.619995 0 C 146.2285 3.817841 141.005859 10.825623 139.460007 19 L 149.75 19 C 151.411728 13.62207 155.62207 9.411743 161 7.75 L 161 0 L 153.619995 0 Z M 171 50.540009 C 181.927429 48.474731 190.474716 39.927429 192.539993 29 L 182.25 29 C 180.588272 34.37793 176.37793 38.588257 171 40.25 L 171 50.540009 Z M 178.380005 0 L 171 0 L 171 7.75 C 176.37793 9.411743 180.588272 13.62207 182.25 19 L 192.539993 19 C 190.994141 10.825623 185.7715 3.817841 178.380005 0 Z M 166 34 C 160.477158 34 156 29.522858 156 24 C 156 18.477142 160.477158 14 166 14 C 171.522842 14 176 18.477142 176 24 C 176 29.522858 171.522842 34 166 34 Z M 166 32 C 170.418274 32 174 28.418274 174 24 C 174 19.581726 170.418274 16 166 16 C 161.581726 16 158 19.581726 158 24 C 158 28.418274 161.581726 32 166 32 Z M 126.489998 208.149994 L 115.82 200.199997 L 121.82 189.800003 L 134.050003 195.070007 C 136.489334 192.894211 139.347916 191.240311 142.449997 190.210007 L 144 177 L 156 177 L 157.550003 190.210007 C 160.652084 191.240311 163.510666 192.894211 165.949997 195.070007 L 178.179993 189.800003 L 184.179993 200.199997 L 173.509995 208.149994 C 174.170212 211.349625 174.170212 214.650375 173.509995 217.850006 L 184.179993 225.800003 L 178.179993 236.199997 L 165.949997 230.929993 C 163.510666 233.105789 160.652084 234.759689 157.550003 235.789993 L 156 249 L 144 249 L 142.449997 235.789993 C 139.347916 234.759689 136.489334 233.105789 134.050003 230.929993 L 121.82 236.199997 L 115.82 225.800003 L 126.489998 217.850006 C 125.832581 214.650085 125.832581 211.349915 126.489998 208.149994 Z M 155.740005 191.75 L 154.240005 179 L 145.759995 179 L 144.259995 191.759995 C 140.509995 192.759995 137.160004 194.75 134.470001 197.410004 L 122.669998 192.330002 L 118.440002 199.669998 L 128.740005 207.350006 C 127.760002 211.050003 127.760002 214.949997 128.740005 218.649994 L 118.440002 226.330002 L 122.669998 233.669998 L 134.470001 228.589996 C 137.191193 231.291626 140.568497 233.238754 144.270004 234.240005 L 145.770004 247 L 154.240005 247 L 155.740005 234.240005 C 159.490005 233.240005 162.839996 231.25 165.529999 228.589996 L 177.330002 233.669998 L 181.559998 226.330002 L 171.259995 218.649994 C 172.240005 214.949997 172.240005 211.050003 171.259995 207.350006 L 181.559998 199.669998 L 177.330002 192.330002 L 165.529999 197.410004 C 162.81221 194.703934 159.433655 192.756088 155.729996 191.759995 L 155.740005 191.75 Z M 150 225 C 143.372589 225 138 219.627411 138 213 C 138 206.372589 143.372589 201 150 201 C 156.627411 201 162 206.372589 162 213 C 162 219.627411 156.627411 225 150 225 Z M 150 223 C 155.522842 223 160 218.522842 160 213 C 160 207.477158 155.522842 203 150 203 C 144.477158 203 140 207.477158 140 213 C 140 218.522842 144.477158 223 150 223 Z M 153.529999 290.720001 L 157.789993 290.790009 L 158.300003 292.720001 L 154.649994 294.910004 C 154.759995 295.540009 154.850006 296.179993 154.899994 296.829987 L 159 298 L 159 300 L 154.899994 301.170013 C 154.850006 301.820007 154.759995 302.459991 154.649994 303.089996 L 158.300003 305.290009 L 157.789993 307.209991 L 153.529999 307.279999 C 153.309998 307.890015 153.059998 308.48999 152.789993 309.079987 L 155.75 312.130005 L 154.75 313.869995 L 150.619995 312.829987 C 150.247498 313.358978 149.853851 313.872711 149.440002 314.369995 L 151.509995 318.089996 L 150.089996 319.51001 L 146.369995 317.440002 C 145.869995 317.850006 145.360001 318.23999 144.830002 318.619995 L 145.869995 322.75 L 144.130005 323.75 L 141.080002 320.790009 C 140.490005 321.059998 139.889999 321.309998 139.279999 321.529999 L 139.210007 325.790009 L 137.279999 326.299988 L 135.089996 322.649994 C 134.460007 322.76001 133.820007 322.850006 133.169998 322.899994 L 132 327 L 130 327 L 128.830002 322.899994 C 128.179993 322.850006 127.540001 322.76001 126.910004 322.649994 L 124.709999 326.299988 L 122.790001 325.790009 L 122.720001 321.529999 C 122.110001 321.309998 121.510002 321.059998 120.919998 320.790009 L 117.870003 323.75 L 116.129997 322.75 L 117.169998 318.619995 C 116.641037 318.247498 116.127289 317.853851 115.629997 317.440002 L 111.910004 319.51001 L 110.489998 318.089996 L 112.559998 314.369995 C 112.150002 313.869995 111.760002 313.359985 111.379997 312.829987 L 107.25 313.869995 L 106.25 312.130005 L 109.209999 309.079987 C 108.940002 308.48999 108.690002 307.890015 108.470001 307.279999 L 104.209999 307.209991 L 103.699997 305.279999 L 107.349998 303.089996 C 107.239998 302.459991 107.150002 301.820007 107.099998 301.170013 L 103 300 L 103 298 L 107.099998 296.829987 C 107.150002 296.179993 107.239998 295.540009 107.349998 294.910004 L 103.699997 292.709991 L 104.209999 290.790009 L 108.470001 290.720001 C 108.690002 290.109985 108.940002 289.51001 109.209999 288.920013 L 106.25 285.869995 L 107.25 284.130005 L 111.379997 285.170013 C 111.760002 284.640015 112.150002 284.130005 112.559998 283.630005 L 110.489998 279.910004 L 111.910004 278.48999 L 115.629997 280.559998 C 116.129997 280.149994 116.639999 279.76001 117.169998 279.380005 L 116.129997 275.25 L 117.870003 274.25 L 120.919998 277.209991 C 121.510002 276.940002 122.110001 276.690002 122.720001 276.470001 L 122.790001 272.209991 L 124.720001 271.700012 L 126.910004 275.350006 C 127.540001 275.23999 128.179993 275.149994 128.830002 275.100006 L 130 271 L 132 271 L 133.169998 275.100006 C 133.820007 275.149994 134.460007 275.23999 135.089996 275.350006 L 137.289993 271.700012 L 139.210007 272.209991 L 139.279999 276.470001 C 139.889999 276.690002 140.490005 276.940002 141.080002 277.209991 L 144.130005 274.25 L 145.869995 275.25 L 144.830002 279.380005 C 145.360001 279.76001 145.869995 280.149994 146.369995 280.559998 L 150.089996 278.48999 L 151.509995 279.910004 L 149.440002 283.630005 C 149.850006 284.130005 150.240005 284.640015 150.619995 285.170013 L 154.75 284.130005 L 155.75 285.869995 L 152.789993 288.920013 C 153.059998 289.51001 153.309998 290.109985 153.529999 290.720001 Z M 109 299 C 109 311.150269 118.849739 321 131 321 C 143.150269 321 153 311.150269 153 299 C 153 286.849731 143.150269 277 131 277 C 118.849739 277 109 286.849731 109 299 Z M 136.110001 288.140015 L 133.110001 293.359985 C 131.752731 292.851501 130.257263 292.851501 128.899994 293.359985 L 125.889999 288.140015 C 129.124832 286.609772 132.875168 286.609772 136.110001 288.140015 Z M 137.850006 289.140015 C 140.785889 291.185303 142.65593 294.434021 142.949997 298 L 136.940002 298 C 136.700821 296.573486 135.955215 295.281097 134.839996 294.359985 L 137.839996 289.140015 L 137.850006 289.140015 Z M 124.150002 289.140015 L 127.169998 294.359985 C 126.054787 295.281097 125.309181 296.573486 125.07 298 L 119.040001 298 C 119.336433 294.432281 121.21032 291.183228 124.150002 289.140015 Z M 119.050003 300 L 125.059998 300 C 125.299179 301.426514 126.044792 302.718903 127.160004 303.640015 L 124.160004 308.859985 C 121.21653 306.818848 119.338791 303.569458 119.040001 300 L 119.050003 300 Z M 125.889999 309.859985 L 128.889999 304.640015 C 130.247269 305.148499 131.742737 305.148499 133.100006 304.640015 L 136.110001 309.859985 C 132.875168 311.390228 129.124832 311.390228 125.889999 309.859985 Z M 137.850006 308.859985 L 134.830002 303.640015 C 135.945206 302.718903 136.690826 301.426514 136.929993 300 L 142.960007 300 C 142.663559 303.567719 140.789673 306.816772 137.850006 308.859985 Z M 133.169998 289.23999 C 131.740631 288.923584 130.259369 288.923584 128.830002 289.23999 L 129.880005 291.059998 C 130.619995 290.959991 131.380005 290.959991 132.119995 291.059998 L 133.169998 289.23999 Z M 138.369995 292.23999 L 137.320007 294.059998 C 137.779999 294.649994 138.160004 295.299988 138.440002 296 L 140.539993 296 C 140.101028 294.602753 139.360199 293.319122 138.369995 292.23999 Z M 123.629997 292.23999 C 122.639793 293.319122 121.898972 294.602753 121.459999 296 L 123.559998 296 C 123.839996 295.299988 124.220001 294.649994 124.68 294.059998 L 123.629997 292.23999 Z M 121.459999 302 C 121.898972 303.397247 122.639793 304.680878 123.629997 305.76001 L 124.68 303.940002 C 124.217636 303.348999 123.840622 302.695923 123.559998 302 L 121.459999 302 Z M 128.830002 308.76001 C 130.259995 309.079987 131.740005 309.079987 133.169998 308.76001 L 132.119995 306.940002 C 131.380005 307.040009 130.619995 307.040009 129.880005 306.940002 L 128.830002 308.76001 Z M 138.369995 305.76001 C 139.360199 304.680878 140.101028 303.397247 140.539993 302 L 138.440002 302 C 138.160004 302.700012 137.779999 303.350006 137.320007 303.940002 L 138.369995 305.76001 Z M 127 299 C 127 296.790863 128.790863 295 131 295 C 133.209137 295 135 296.790863 135 299 C 135 301.209137 133.209137 303 131 303 C 128.790863 303 127 301.209137 127 299 Z M 129 299 C 129 300.104584 129.895432 301 131 301 C 132.104568 301 133 300.104584 133 299 C 133 297.895416 132.104568 297 131 297 C 129.895432 297 129 297.895416 129 299 Z M 144 299 C 144 296.790863 145.790863 295 148 295 C 150.209137 295 152 296.790863 152 299 C 152 301.209137 150.209137 303 148 303 C 145.790863 303 144 301.209137 144 299 Z M 137.5 310.26001 C 139.413666 309.155426 141.860428 309.81134 142.964996 311.725006 C 144.069565 313.638672 143.413666 316.085419 141.5 317.190002 C 139.586334 318.294556 137.139572 317.638672 136.035004 315.725006 C 134.930435 313.81134 135.586334 311.364563 137.5 310.26001 Z M 124.5 310.26001 C 126.413666 311.364563 127.069572 313.81134 125.964996 315.725006 C 124.860428 317.638672 122.413666 318.294556 120.5 317.190002 C 118.586334 316.085419 117.930428 313.638672 119.035004 311.725006 C 120.139572 309.81134 122.586334 309.155426 124.5 310.26001 Z M 118 299 C 118 301.209137 116.209137 303 114 303 C 111.790863 303 110 301.209137 110 299 C 110 296.790863 111.790863 295 114 295 C 116.209137 295 118 296.790863 118 299 Z M 124.5 287.73999 C 122.586334 288.844574 120.139572 288.18866 119.035004 286.274994 C 117.930428 284.361328 118.586334 281.914581 120.5 280.809998 C 122.413666 279.705444 124.860428 280.361328 125.964996 282.274994 C 127.069572 284.18866 126.413666 286.635437 124.5 287.73999 Z M 137.5 287.73999 C 135.586334 286.635437 134.930435 284.18866 136.035004 282.274994 C 137.139572 280.361328 139.586334 279.705444 141.5 280.809998 C 143.413666 281.914581 144.069565 284.361328 142.964996 286.274994 C 141.860428 288.18866 139.413666 288.844574 137.5 287.73999 Z M 146 299 C 146 300.104584 146.895432 301 148 301 C 149.104568 301 150 300.104584 150 299 C 150 297.895416 149.104568 297 148 297 C 146.895432 297 146 297.895416 146 299 Z M 138.5 311.98999 C 137.494843 312.448395 137.051605 313.634827 137.509995 314.640015 C 137.968399 315.645172 139.154846 316.088409 140.160004 315.630005 C 141.165161 315.1716 141.608398 313.985168 141.149994 312.980011 C 140.691605 311.974854 139.505157 311.531616 138.5 311.98999 Z M 123.5 311.98999 C 122.566635 311.396301 121.328705 311.671631 120.735001 312.605011 C 120.141296 313.538361 120.416641 314.776306 121.349998 315.369995 C 122.283363 315.963715 123.521294 315.688354 124.114998 314.755005 C 124.70871 313.821625 124.433365 312.58371 123.5 311.98999 Z M 116 299 C 116 297.895416 115.104568 297 114 297 C 112.895432 297 112 297.895416 112 299 C 112 300.104584 112.895432 301 114 301 C 115.104568 301 116 300.104584 116 299 Z M 123.5 286.01001 C 124.505157 285.551605 124.948395 284.365173 124.489998 283.359985 C 124.031601 282.354828 122.845161 281.911591 121.839996 282.369995 C 120.834839 282.8284 120.391602 284.014832 120.849998 285.019989 C 121.308395 286.025146 122.494843 286.468384 123.5 286.01001 Z M 138.5 286.01001 C 139.433365 286.603699 140.671295 286.328369 141.264999 285.394989 C 141.858704 284.461639 141.583359 283.223694 140.649994 282.630005 C 139.716644 282.036285 138.478699 282.311646 137.884995 283.244995 C 137.29129 284.178375 137.566635 285.41629 138.5 286.01001 Z M 242.300003 224.309998 L 241.5 216.089996 L 247.300003 214.539993 L 250.720001 222.059998 C 252.979996 221.630005 255.289993 221.320007 257.640015 221.160004 L 259 213 L 265 213 L 266.359985 221.160004 C 268.709991 221.320007 271.019989 221.630005 273.279999 222.059998 L 276.700012 214.539993 L 282.5 216.089996 L 281.700012 224.309998 C 283.910004 225.080002 286.070007 225.970001 288.149994 226.990005 L 293.399994 220.610001 L 298.600006 223.610001 L 295.700012 231.350006 C 297.62384 232.658691 299.470276 234.077744 301.230011 235.600006 L 307.959991 230.800003 L 312.200012 235.039993 L 307.399994 241.770004 C 308.922272 243.529724 310.341309 245.376144 311.649994 247.300003 L 319.390015 244.399994 L 322.390015 249.600006 L 316.01001 254.850006 C 317.028625 256.94577 317.923492 259.099487 318.690002 261.299988 L 326.910004 260.5 L 328.459991 266.299988 L 320.940002 269.720001 C 321.369995 271.980011 321.679993 274.290009 321.839996 276.640015 L 330 278 L 330 284 L 321.839996 285.359985 C 321.674438 287.682159 321.373932 289.992737 320.940002 292.279999 L 328.459991 295.700012 L 326.910004 301.5 L 318.690002 300.700012 C 317.923492 302.900513 317.028625 305.05423 316.01001 307.149994 L 322.390015 312.399994 L 319.390015 317.600006 L 311.649994 314.700012 C 310.341309 316.62384 308.922272 318.470276 307.399994 320.230011 L 312.200012 326.959991 L 307.959991 331.200012 L 301.230011 326.399994 C 299.470276 327.922272 297.62384 329.341309 295.700012 330.649994 L 298.600006 338.390015 L 293.399994 341.390015 L 288.149994 335.01001 C 286.05423 336.028625 283.900513 336.923492 281.700012 337.690002 L 282.5 345.910004 L 276.700012 347.459991 L 273.279999 339.940002 C 271.019989 340.369995 268.709991 340.679993 266.359985 340.839996 L 265 349 L 259 349 L 257.640015 340.839996 C 255.317841 340.674438 253.007263 340.373932 250.720001 339.940002 L 247.300003 347.459991 L 241.5 345.910004 L 242.300003 337.690002 C 240.099472 336.923492 237.945786 336.028625 235.850006 335.01001 L 230.600006 341.390015 L 225.399994 338.390015 L 228.300003 330.649994 C 226.376144 329.341309 224.529724 327.922272 222.770004 326.399994 L 216.039993 331.200012 L 211.800003 326.959991 L 216.600006 320.230011 C 215.077744 318.470276 213.658691 316.62384 212.350006 314.700012 L 204.610001 317.600006 L 201.610001 312.399994 L 207.990005 307.149994 C 206.97139 305.05423 206.076523 302.900513 205.309998 300.700012 L 197.089996 301.5 L 195.539993 295.700012 L 203.059998 292.279999 C 202.630005 289.98999 202.330002 287.679993 202.160004 285.359985 L 194 284 L 194 278 L 202.160004 276.640015 C 202.320007 274.290009 202.630005 271.980011 203.059998 269.720001 L 195.539993 266.299988 L 197.089996 260.5 L 205.309998 261.299988 C 206.080002 259.100006 206.970001 256.950012 207.990005 254.850006 L 201.610001 249.600006 L 204.610001 244.399994 L 212.350006 247.300003 C 213.658691 245.376144 215.077744 243.529724 216.600006 241.770004 L 211.800003 235.039993 L 216.039993 230.800003 L 222.770004 235.600006 C 224.529724 234.077744 226.376144 232.658691 228.300003 231.350006 L 225.399994 223.610001 L 230.600006 220.610001 L 235.850006 226.990005 C 237.945786 225.97139 240.099472 225.076523 242.300003 224.309998 Z M 244.419998 225.710007 C 241.270004 226.710007 238.229996 227.979996 235.339996 229.479996 L 230.149994 223.179993 L 227.850006 224.509995 L 230.710007 232.160004 C 227.9496 233.930466 225.343674 235.930908 222.919998 238.139999 L 216.270004 233.389999 L 214.389999 235.270004 L 219.139999 241.919998 C 216.930908 244.343674 214.930466 246.9496 213.160004 249.710007 L 205.509995 246.850006 L 204.179993 249.149994 L 210.479996 254.350006 C 208.96756 257.260559 207.706314 260.294891 206.710007 263.420013 L 198.589996 262.630005 L 197.899994 265.209991 L 205.330002 268.589996 C 204.632584 271.791626 204.207718 275.0466 204.059998 278.320007 L 196 279.670013 L 196 282.329987 L 204.059998 283.679993 C 204.210007 287 204.639999 290.26001 205.330002 293.410004 L 197.899994 296.790009 L 198.600006 299.369995 L 206.710007 298.579987 C 207.710007 301.730011 208.979996 304.769989 210.479996 307.660004 L 204.179993 312.850006 L 205.509995 315.149994 L 213.160004 312.290009 C 214.930466 315.050385 216.930908 317.656311 219.139999 320.079987 L 214.389999 326.730011 L 216.270004 328.609985 L 222.919998 323.859985 C 225.349762 326.061829 227.955063 328.061798 230.710007 329.839996 L 227.850006 337.48999 L 230.149994 338.820007 L 235.350006 332.519989 C 238.259201 334.035339 241.293808 335.296692 244.419998 336.290009 L 243.630005 344.410004 L 246.210007 345.100006 L 249.589996 337.670013 C 252.740005 338.359985 255.990005 338.790009 259.320007 338.940002 L 260.670013 347 L 263.329987 347 L 264.679993 338.940002 C 268 338.790009 271.26001 338.359985 274.410004 337.670013 L 277.790009 345.100006 L 280.369995 344.399994 L 279.579987 336.290009 C 282.730011 335.290009 285.769989 334.019989 288.660004 332.519989 L 293.850006 338.820007 L 296.149994 337.48999 L 293.290009 329.839996 C 296.050385 328.06955 298.656311 326.069092 301.079987 323.859985 L 307.730011 328.609985 L 309.609985 326.730011 L 304.859985 320.079987 C 307.061829 317.650238 309.061798 315.044952 310.839996 312.290009 L 318.48999 315.149994 L 319.820007 312.850006 L 313.519989 307.649994 C 315.035339 304.740784 316.296692 301.706207 317.290009 298.579987 L 325.410004 299.369995 L 326.100006 296.790009 L 318.670013 293.410004 C 319.367432 290.208374 319.792267 286.9534 319.940002 283.679993 L 328 282.329987 L 328 279.670013 L 319.940002 278.320007 C 319.792084 275.046631 319.367218 271.791656 318.670013 268.589996 L 326.100006 265.209991 L 325.399994 262.630005 L 317.290009 263.420013 C 316.290009 260.269989 315.019989 257.230011 313.519989 254.339996 L 319.820007 249.149994 L 318.48999 246.850006 L 310.839996 249.710007 C 309.06955 246.9496 307.069092 244.343674 304.859985 241.919998 L 309.609985 235.270004 L 307.730011 233.389999 L 301.079987 238.139999 C 298.656311 235.930908 296.050385 233.930466 293.290009 232.160004 L 296.149994 224.509995 L 293.850006 223.179993 L 288.649994 229.479996 C 285.739441 227.96756 282.705109 226.706314 279.579987 225.710007 L 280.369995 217.589996 L 277.790009 216.899994 L 274.410004 224.330002 C 271.208374 223.632584 267.9534 223.207718 264.679993 223.059998 L 263.329987 215 L 260.670013 215 L 259.320007 223.059998 C 256 223.210007 252.740005 223.639999 249.589996 224.330002 L 246.210007 216.899994 L 243.630005 217.600006 L 244.419998 225.710007 Z M 249 275.809998 C 247.663162 279.144318 247.663162 282.865662 249 286.200012 L 215.119995 305.75 C 211.087738 298.124207 208.98642 289.626221 209 281 C 209 272.059998 211.210007 263.630005 215.119995 256.25 L 249 275.799988 L 249 275.809998 Z M 251 272.339996 L 217.130005 252.779999 C 226.451447 237.953415 242.498825 228.692581 260 228.039993 L 260 267.140015 C 256.443512 267.653198 253.220871 269.515167 251 272.339996 Z M 251 289.660004 C 253.220871 292.484833 256.443512 294.346802 260 294.859985 L 260 333.959991 C 242.498825 333.307404 226.451447 324.0466 217.130005 309.220001 L 251 289.660004 Z M 264 294.859985 C 267.556488 294.346802 270.779144 292.484833 273 289.660004 L 306.869995 309.220001 C 297.548553 324.0466 281.50119 333.307404 264 333.959991 L 264 294.859985 Z M 275 286.200012 C 276.339508 282.862732 276.339508 279.137268 275 275.799988 L 308.880005 256.25 C 312.912262 263.875793 315.01358 272.373779 315 281 C 315 289.940002 312.790009 298.369995 308.880005 305.75 L 275 286.200012 Z M 273 272.339996 C 270.779144 269.515167 267.556488 267.653198 264 267.140015 L 264 228.039993 C 281.50119 228.692581 297.548553 237.953415 306.869995 252.779999 L 273 272.339996 Z M 215.960007 259.040009 C 212.685043 265.896912 210.990097 273.401154 211 281 C 210.990097 288.598846 212.685043 296.103088 215.960007 302.959991 L 246.580002 285.279999 C 245.800003 282.480011 245.800003 279.519989 246.580002 276.720001 L 215.960007 259.040009 Z M 219.960007 252.110001 L 250.580002 269.790009 C 252.619659 267.715027 255.184097 266.232361 258 265.5 L 258 230.149994 C 242.654205 231.349304 228.672729 239.420624 219.960007 252.110001 Z M 219.960007 309.890015 C 228.672729 322.579376 242.654205 330.650696 258 331.850006 L 258 296.5 C 255.182159 295.772339 252.616547 294.288971 250.580002 292.209991 L 219.960007 309.890015 Z M 266 331.850006 C 281.345795 330.650696 295.327271 322.579376 304.040009 309.890015 L 273.420013 292.209991 C 271.380341 294.284973 268.815918 295.767639 266 296.5 L 266 331.850006 Z M 308.040009 302.959991 C 311.314941 296.103088 313.009888 288.598846 313 281 C 313.009888 273.401154 311.314941 265.896912 308.040009 259.040009 L 277.420013 276.720001 C 278.200012 279.519989 278.200012 282.480011 277.420013 285.279999 L 308.040009 302.959991 Z M 304.040009 252.110001 C 295.327271 239.420624 281.345795 231.349304 266 230.149994 L 266 265.5 C 268.859985 266.23999 271.410004 267.75 273.420013 269.790009 L 304.040009 252.110001 Z M 262 290 C 257.029449 290 253 285.970551 253 281 C 253 276.029449 257.029449 272 262 272 C 266.970551 272 271 276.029449 271 281 C 271 285.970551 266.970551 290 262 290 Z M 262 288 C 265.865997 288 269 284.865997 269 281 C 269 277.134003 265.865997 274 262 274 C 258.134003 274 255 277.134003 255 281 C 255 284.865997 258.134003 288 262 288 Z M -0 242.639999 L 2.76 243.039993 L 7.51 245.309998 C 8.393331 244.122406 9.344934 242.987167 10.36 241.910004 L 7.3 237.630005 L 5.61 232.520004 L 8.68 229.940002 L 13.42 232.490005 L 17.110001 236.25 C 18.345634 235.435791 19.627823 234.694519 20.950001 234.029999 L 19.530001 228.960007 L 19.700001 223.580002 L 23.459999 222.210007 L 27.059999 226.229996 L 29.23 231.020004 C 30.65 230.679993 32.110001 230.419998 33.599998 230.25 L 34 225 L 36 220 L 40 220 L 42 225 L 42.400002 230.25 C 43.889999 230.419998 45.349998 230.679993 46.77 231.020004 L 48.950001 226.220001 L 52.540001 222.220001 L 56.299999 223.580002 L 56.470001 228.960007 L 55.049999 234.029999 C 56.380001 234.699997 57.650002 235.440002 58.889999 236.25 L 62.580002 232.490005 L 67.32 229.940002 L 70.389999 232.520004 L 68.699997 237.630005 L 65.639999 241.919998 C 66.655067 242.997162 67.606667 244.132416 68.489998 245.320007 L 73.239998 243.039993 L 78.57 242.270004 L 80.57 245.729996 L 77.239998 249.960007 L 72.900002 252.940002 C 73.489998 254.300003 74 255.690002 74.419998 257.109985 L 79.650002 256.589996 L 84.919998 257.690002 L 85.620003 261.630005 L 81.040001 264.470001 L 75.940002 265.779999 C 76.025192 267.258789 76.025192 268.741211 75.940002 270.220001 L 81.040001 271.519989 L 85.620003 274.369995 L 84.919998 278.299988 L 79.650002 279.399994 L 74.419998 278.899994 C 73.998482 280.316315 73.490868 281.705566 72.900002 283.059998 L 77.239998 286.040009 L 80.57 290.269989 L 78.57 293.730011 L 73.239998 292.959991 L 68.489998 290.690002 C 67.606667 291.877594 66.655067 293.012848 65.639999 294.089996 L 68.699997 298.369995 L 70.389999 303.480011 L 67.32 306.059998 L 62.580002 303.51001 L 58.889999 299.75 C 57.654366 300.564209 56.372177 301.305481 55.049999 301.970001 L 56.470001 307.040009 L 56.299999 312.420013 L 52.540001 313.790009 L 48.939999 309.769989 L 46.77 304.980011 C 45.349998 305.320007 43.889999 305.579987 42.400002 305.75 L 42 311 L 40 316 L 36 316 L 34 311 L 33.599998 305.75 C 32.129536 305.578979 30.670364 305.321869 29.23 304.980011 L 27.049999 309.779999 L 23.459999 313.779999 L 19.700001 312.420013 L 19.530001 307.040009 L 20.950001 301.970001 C 19.629999 301.309998 18.35 300.570007 17.110001 299.75 L 13.42 303.51001 L 8.68 306.059998 L 5.61 303.480011 L 7.3 298.369995 L 10.36 294.079987 C 9.344934 293.002838 8.393331 291.867584 7.51 290.679993 L 2.76 292.959991 L -0 293.359985 L -0 285.190002 L 3.1 283.059998 C 2.511923 281.70105 2.004378 280.308624 1.58 278.890015 L -0 279.049988 L -0 270.230011 L 0.06 270.220001 C -0.02519 268.741211 -0.02519 267.258789 0.06 265.779999 L -0 265.769989 L -0 256.950012 L 1.58 257.109985 C 2.01 255.679993 2.52 254.289993 3.1 252.940002 L -0 250.800003 L -0 242.630005 L -0 242.639999 Z M -0 244.509995 L -0 248.399994 L 5.62 252.240005 C 4.52716 254.484512 3.672494 256.837372 3.07 259.26001 L -0 258.959991 L -0 263.709991 L 2.2 264.269989 C 1.944654 266.750122 1.944654 269.249878 2.2 271.730011 L -0 272.290009 L -0 277.040009 L 3.07 276.73999 C 3.66864 279.163818 4.52345 281.517059 5.62 283.76001 L -0 287.600006 L -0 291.48999 L 1.76 291.230011 L 8.17 288.160004 C 9.57 290.220001 11.17 292.140015 12.97 293.869995 L 8.83 299.649994 L 7.82 302.720001 L 9.04 303.75 L 11.89 302.230011 L 16.870001 297.149994 C 18.870001 298.600006 21.030001 299.850006 23.32 300.880005 L 21.42 307.720001 L 21.52 310.950012 L 23.02 311.5 L 25.17 309.100006 L 28.110001 302.619995 C 30.504929 303.306854 32.964851 303.742554 35.450001 303.920013 L 36 311 L 37.200001 314 L 38.799999 314 L 40 311 L 40.549999 303.910004 C 43.034794 303.735809 45.494713 303.303467 47.889999 302.619995 L 50.830002 309.089996 L 52.98 311.48999 L 54.48 310.950012 L 54.580002 307.720001 L 52.68 300.880005 C 54.953358 299.863373 57.114956 298.613312 59.130001 297.149994 L 64.110001 302.230011 L 66.959999 303.75 L 68.18 302.720001 L 67.18 299.649994 L 63.029999 293.869995 C 64.823929 292.142151 66.43264 290.231812 67.830002 288.170013 L 74.230003 291.230011 L 77.43 291.690002 L 78.230003 290.309998 L 76.230003 287.769989 L 70.379997 283.76001 C 71.480003 281.519989 72.330002 279.160004 72.93 276.73999 L 80 277.440002 L 83.160004 276.779999 L 83.440002 275.200012 L 80.690002 273.5 L 73.809998 271.730011 C 74.07 269.25 74.07 266.75 73.809998 264.269989 L 80.690002 262.5 L 83.440002 260.799988 L 83.160004 259.220001 L 80 258.559998 L 72.93 259.26001 C 72.327507 256.837372 71.472839 254.484512 70.379997 252.240005 L 76.239998 248.240005 L 78.239998 245.690002 L 77.440002 244.309998 L 74.239998 244.770004 L 67.830002 247.839996 C 66.43 245.779999 64.830002 243.860001 63.029999 242.130005 L 67.169998 236.350006 L 68.18 233.279999 L 66.959999 232.25 L 64.110001 233.770004 L 59.130001 238.850006 C 57.130001 237.399994 54.970001 236.149994 52.68 235.119995 L 54.580002 228.279999 L 54.48 225.050003 L 52.98 224.5 L 50.830002 226.899994 L 47.889999 233.380005 C 45.495071 232.693146 43.035149 232.257462 40.549999 232.080002 L 40 225 L 38.799999 222 L 37.200001 222 L 36 225 L 35.450001 232.089996 C 32.970001 232.259995 30.51 232.690002 28.110001 233.380005 L 25.17 226.910004 L 23.02 224.509995 L 21.52 225.050003 L 21.42 228.279999 L 23.32 235.119995 C 21.046644 236.136642 18.885044 237.386688 16.870001 238.850006 L 11.89 233.770004 L 9.04 232.25 L 7.82 233.279999 L 8.82 236.350006 L 12.97 242.130005 C 11.178076 243.859726 9.569546 245.769852 8.17 247.830002 L 1.77 244.770004 L -0 244.5 L -0 244.509995 Z M 38 272 C 35.790859 272 34 270.209137 34 268 C 34 265.790863 35.790859 264 38 264 C 40.209141 264 42 265.790863 42 268 C 42 270.209137 40.209141 272 38 272 Z M 38 270 C 39.104568 270 40 269.104584 40 268 C 40 266.895416 39.104568 266 38 266 C 36.895432 266 36 266.895416 36 268 C 36 269.104584 36.895432 270 38 270 Z M 38 244 C 35.790859 244 34 242.209137 34 240 C 34 237.790863 35.790859 236 38 236 C 40.209141 236 42 237.790863 42 240 C 42 242.209137 40.209141 244 38 244 Z M 62 268 C 62 265.790863 63.790859 264 66 264 C 68.209137 264 70 265.790863 70 268 C 70 270.209137 68.209137 272 66 272 C 63.790859 272 62 270.209137 62 268 Z M 38 292 C 40.209141 292 42 293.790863 42 296 C 42 298.209137 40.209141 300 38 300 C 35.790859 300 34 298.209137 34 296 C 34 293.790863 35.790859 292 38 292 Z M 14 268 C 14 270.209137 12.209139 272 10 272 C 7.790861 272 6 270.209137 6 268 C 6 265.790863 7.790861 264 10 264 C 12.209139 264 14 265.790863 14 268 Z M 38 242 C 39.104568 242 40 241.104568 40 240 C 40 238.895432 39.104568 238 38 238 C 36.895432 238 36 238.895432 36 240 C 36 241.104568 36.895432 242 38 242 Z M 64 268 C 64 269.104584 64.895432 270 66 270 C 67.104568 270 68 269.104584 68 268 C 68 266.895416 67.104568 266 66 266 C 64.895432 266 64 266.895416 64 268 Z M 38 294 C 36.895432 294 36 294.895416 36 296 C 36 297.104584 36.895432 298 38 298 C 39.104568 298 40 297.104584 40 296 C 40 294.895416 39.104568 294 38 294 Z M 12 268 C 12 266.895416 11.104569 266 10 266 C 8.895431 266 8 266.895416 8 268 C 8 269.104584 8.895431 270 10 270 C 11.104569 270 12 269.104584 12 268 Z M 15.37 290.630005 C 10.471234 286.164764 10.119778 278.573761 14.585 273.674988 C 19.050222 268.776245 26.641233 268.424774 31.540001 272.890015 C 36.438766 277.355225 36.790222 284.946228 32.325001 289.845001 C 27.859777 294.743774 20.268766 295.095215 15.37 290.630005 Z M 15.37 245.369995 C 19.835222 240.471237 27.426235 240.119781 32.325001 244.585007 C 37.223766 249.050217 37.575222 256.641235 33.110001 261.540009 C 28.644777 266.438751 21.053766 266.790222 16.155001 262.325012 C 11.256234 257.859772 10.904778 250.268768 15.37 245.369995 Z M 60.630001 245.369995 C 65.528763 249.83522 65.880226 257.426239 61.415001 262.325012 C 56.94978 267.223755 49.358765 267.575226 44.459999 263.109985 C 39.561234 258.644775 39.209778 251.053772 43.674999 246.154999 C 48.140221 241.256241 55.731236 240.904785 60.630001 245.369995 Z M 60.630001 290.630005 C 56.16478 295.528778 48.573765 295.880219 43.674999 291.415009 C 38.776234 286.949768 38.424778 279.358765 42.889999 274.459991 C 47.355221 269.561249 54.946236 269.209778 59.845001 273.674988 C 64.743767 278.140228 65.095222 285.731232 60.630001 290.630005 Z M 45.07 260.929993 C 48.908379 264.903687 55.24131 265.013367 59.215 261.174988 C 63.18869 257.336609 63.298378 251.003693 59.459999 247.029999 C 55.62162 243.056305 49.288689 242.946625 45.314999 246.785004 C 41.341312 250.623383 41.231621 256.956299 45.07 260.929993 Z M 45.07 275.070007 C 41.09631 278.908386 40.986622 285.241302 44.825001 289.214996 C 48.66338 293.18869 54.996311 293.29837 58.970001 289.459991 C 62.943687 285.621613 63.053379 279.288696 59.215 275.315002 C 55.376621 271.341309 49.04369 271.231628 45.07 275.070007 Z M 30.93 275.070007 C 27.091621 271.096313 20.758688 270.986633 16.785 274.825012 C 12.811311 278.663391 12.701621 284.996307 16.540001 288.970001 C 20.37838 292.943695 26.711311 293.053375 30.684999 289.214996 C 34.658688 285.376617 34.768379 279.043701 30.93 275.070007 Z M 30.93 260.929993 C 34.90369 257.091614 35.013378 250.758682 31.174999 246.785004 C 27.33662 242.81131 21.003689 242.701614 17.030001 246.539993 C 13.056312 250.378372 12.946621 256.711304 16.785 260.684998 C 20.623379 264.658691 26.95631 264.768372 30.93 260.929993 Z M 261.829987 15.529999 L 261.75 11.350006 L 263.679993 10.829987 L 265.720001 14.5 C 266.790009 14.299988 267.880005 14.149994 268.980011 14.070007 L 270 10 L 272 10 L 273.019989 14.070007 C 274.119995 14.149994 275.220001 14.290009 276.279999 14.5 L 278.320007 10.829987 L 280.25 11.350006 L 280.179993 15.540009 C 281.218018 15.897797 282.233215 16.318573 283.220001 16.799988 L 286.130005 13.790009 L 287.869995 14.790009 L 286.709991 18.820007 C 287.619995 19.440002 288.48999 20.109985 289.320007 20.820007 L 292.920013 18.670013 L 294.329987 20.079987 L 292.170013 23.679993 C 292.890015 24.51001 293.570007 25.380005 294.170013 26.279999 L 298.209991 25.130005 L 299.209991 26.869995 L 296.200012 29.779999 C 296.679993 30.76001 297.100006 31.779999 297.459991 32.820007 L 301.660004 32.75 L 302.160004 34.679993 L 298.5 36.720001 C 298.700012 37.790009 298.850006 38.880005 298.929993 39.980011 L 303 41 L 303 43 L 298.929993 44.019989 C 298.853271 45.11441 298.709686 46.203125 298.5 47.279999 L 302.170013 49.320007 L 301.649994 51.25 L 297.459991 51.179993 C 297.100342 52.217316 296.679626 53.232422 296.200012 54.220001 L 299.209991 57.130005 L 298.209991 58.869995 L 294.179993 57.709991 C 293.559998 58.619995 292.890015 59.48999 292.179993 60.320007 L 294.329987 63.919983 L 292.920013 65.330017 L 289.320007 63.169983 C 288.48999 63.890015 287.619995 64.570007 286.720001 65.169983 L 287.869995 69.209991 L 286.130005 70.209991 L 283.220001 67.200012 C 282.233215 67.681427 281.218018 68.102203 280.179993 68.459991 L 280.25 72.660004 L 278.320007 73.160004 L 276.279999 69.5 C 275.209991 69.700012 274.119995 69.850006 273.019989 69.929993 L 272 74 L 270 74 L 268.980011 69.929993 C 267.88559 69.853271 266.796875 69.709686 265.720001 69.5 L 263.679993 73.169983 L 261.75 72.649994 L 261.820007 68.459991 C 260.782684 68.100342 259.767578 67.679626 258.779999 67.200012 L 255.869995 70.209991 L 254.130005 69.209991 L 255.289993 65.179993 C 254.389999 64.559998 253.509995 63.890015 252.679993 63.179993 L 249.080002 65.330017 L 247.669998 63.919983 L 249.830002 60.320007 C 249.110001 59.48999 248.429993 58.619995 247.830002 57.720001 L 243.789993 58.869995 L 242.789993 57.130005 L 245.800003 54.220001 C 245.318573 53.233215 244.897797 52.218018 244.539993 51.179993 L 240.339996 51.25 L 239.839996 49.320007 L 243.5 47.279999 C 243.300003 46.209991 243.149994 45.119995 243.070007 44.019989 L 239 43 L 239 41 L 243.070007 39.980011 C 243.149994 38.880005 243.289993 37.779999 243.5 36.720001 L 239.830002 34.679993 L 240.350006 32.75 L 244.539993 32.820007 C 244.897797 31.781982 245.318573 30.766785 245.800003 29.779999 L 242.789993 26.869995 L 243.789993 25.130005 L 247.820007 26.290009 C 248.440002 25.380005 249.110001 24.51001 249.820007 23.679993 L 247.669998 20.079987 L 249.080002 18.670013 L 252.679993 20.829987 C 253.509995 20.109985 254.380005 19.429993 255.279999 18.829987 L 254.130005 14.790009 L 255.869995 13.790009 L 258.779999 16.799988 C 259.766785 16.318573 260.781982 15.897797 261.820007 15.540009 L 261.829987 15.529999 Z M 271 68 C 285.359406 68 297 56.359406 297 42 C 297 27.640594 285.359406 16 271 16 C 256.640594 16 245 27.640594 245 42 C 245 56.359406 256.640594 68 271 68 Z M 271 59 C 261.611145 59 254 51.388855 254 42 C 254 32.611145 261.611145 25 271 25 C 280.388855 25 288 32.611145 288 42 C 288 51.388855 280.388855 59 271 59 Z M 271 57 C 279.284271 57 286 50.284271 286 42 C 286 33.715729 279.284271 27 271 27 C 262.715729 27 256 33.715729 256 42 C 256 50.284271 262.715729 57 271 57 Z M 271 49 C 267.134003 49 264 45.865997 264 42 C 264 38.134003 267.134003 35 271 35 C 274.865997 35 278 38.134003 278 42 C 278 45.865997 274.865997 49 271 49 Z M 271 47 C 273.761414 47 276 44.761414 276 42 C 276 39.238586 273.761414 37 271 37 C 268.238586 37 266 39.238586 266 42 C 266 44.761414 268.238586 47 271 47 Z M 271 33 C 269.895416 33 269 32.104553 269 31 C 269 29.895416 269.895416 29 271 29 C 272.104584 29 273 29.895416 273 31 C 273 32.104553 272.104584 33 271 33 Z M 280 42 C 280 40.895447 280.895416 40 282 40 C 283.104584 40 284 40.895447 284 42 C 284 43.104553 283.104584 44 282 44 C 280.895416 44 280 43.104553 280 42 Z M 271 51 C 272.104584 51 273 51.895447 273 53 C 273 54.104553 272.104584 55 271 55 C 269.895416 55 269 54.104553 269 53 C 269 51.895447 269.895416 51 271 51 Z M 262 42 C 262 43.104553 261.104584 44 260 44 C 258.895416 44 258 43.104553 258 42 C 258 40.895447 258.895416 40 260 40 C 261.104584 40 262 40.895447 262 42 Z M 309.929993 95.790009 L 308.130005 91.880005 L 309.76001 90.700012 L 312.910004 93.619995 C 313.309998 93.450012 313.730011 93.320007 314.160004 93.220001 L 315 89 L 317 89 L 317.839996 93.209991 C 318.269989 93.309998 318.690002 93.450012 319.089996 93.609985 L 322.23999 90.709991 L 323.859985 91.880005 L 322.059998 95.779999 C 322.359985 96.109985 322.609985 96.470001 322.839996 96.839996 L 327.100006 96.339996 L 327.720001 98.23999 L 323.970001 100.339996 C 324.01001 100.779999 324.01001 101.209991 323.970001 101.649994 L 327.720001 103.75 L 327.100006 105.649994 L 322.839996 105.149994 C 322.609985 105.529999 322.350006 105.889999 322.070007 106.209991 L 323.869995 110.119995 L 322.23999 111.300003 L 319.089996 108.380005 C 318.690002 108.550003 318.269989 108.679993 317.839996 108.779999 L 317 113 L 315 113 L 314.160004 108.790009 C 313.730011 108.690002 313.309998 108.550003 312.910004 108.389999 L 309.76001 111.290009 L 308.140015 110.119995 L 309.940002 106.220001 C 309.651428 105.888611 309.390564 105.534088 309.160004 105.160004 L 304.899994 105.660004 L 304.279999 103.76001 L 308.029999 101.660004 C 307.994629 101.22406 307.994629 100.78595 308.029999 100.350006 L 304.279999 98.25 L 304.899994 96.350006 L 309.160004 96.850006 C 309.390015 96.470001 309.649994 96.109985 309.929993 95.790009 Z M 316 106 C 318.761414 106 321 103.761414 321 101 C 321 98.238586 318.761414 96 316 96 C 313.238586 96 311 98.238586 311 101 C 311 103.761414 313.238586 106 316 106 Z M 75.730003 179.199997 L 75.129997 177.100006 L 76.870003 176.100006 L 78.379997 177.669998 C 79.0578 177.410477 79.762001 177.226044 80.480003 177.119995 L 81 175 L 83 175 L 83.529999 177.119995 C 84.25 177.220001 84.949997 177.419998 85.620003 177.669998 L 87.129997 176.110001 L 88.870003 177.110001 L 88.269997 179.210007 C 88.830002 179.660004 89.339996 180.169998 89.790001 180.729996 L 91.889999 180.130005 L 92.889999 181.869995 L 91.330002 183.380005 C 91.580002 184.050003 91.769997 184.75 91.879997 185.479996 L 94 186 L 94 188 L 91.879997 188.529999 C 91.773483 189.244644 91.58905 189.945496 91.330002 190.619995 L 92.889999 192.130005 L 91.889999 193.869995 L 89.790001 193.270004 C 89.339828 193.83017 88.830177 194.339828 88.269997 194.789993 L 88.870003 196.889999 L 87.129997 197.889999 L 85.620003 196.330002 C 84.949997 196.580002 84.25 196.770004 83.519997 196.880005 L 83 199 L 81 199 L 80.470001 196.880005 C 79.760002 196.779999 79.050003 196.580002 78.379997 196.330002 L 76.870003 197.889999 L 75.129997 196.889999 L 75.730003 194.789993 C 75.169823 194.339828 74.660172 193.83017 74.209999 193.270004 L 72.110001 193.869995 L 71.110001 192.130005 L 72.669998 190.619995 C 72.410477 189.9422 72.226036 189.237991 72.120003 188.520004 L 70 188 L 70 186 L 72.120003 185.470001 C 72.220001 184.75 72.419998 184.050003 72.669998 183.380005 L 71.110001 181.869995 L 72.110001 180.130005 L 74.209999 180.729996 C 74.660004 180.169998 75.169998 179.660004 75.730003 179.210007 L 75.730003 179.199997 Z M 77.879997 180.139999 C 76.756943 180.816284 75.816292 181.756943 75.139999 182.880005 L 75 183.130005 C 73.661217 185.536316 73.661217 188.463684 75 190.869995 L 75.139999 191.119995 C 75.816292 192.243057 76.756943 193.183716 77.879997 193.860001 L 78.129997 194 C 80.536324 195.338791 83.463676 195.338791 85.870003 194 L 86.120003 193.860001 C 87.243057 193.183716 88.183708 192.243057 88.860001 191.119995 L 89 190.869995 C 90.338783 188.463684 90.338783 185.536316 89 183.130005 L 88.860001 182.880005 C 88.183708 181.756943 87.243057 180.816284 86.120003 180.139999 L 85.870003 180 C 83.463676 178.661209 80.536324 178.661209 78.129997 180 L 77.879997 180.139999 Z M 82 193 C 78.686295 193 76 190.313705 76 187 C 76 183.686295 78.686295 181 82 181 C 85.313705 181 88 183.686295 88 187 C 88 190.313705 85.313705 193 82 193 Z M 82 191 C 84.209137 191 86 189.209137 86 187 C 86 184.790863 84.209137 183 82 183 C 79.790863 183 78 184.790863 78 187 C 78 189.209137 79.790863 191 82 191 Z M 360 194.179993 L 356.200012 199.779999 L 349.019989 196.270004 L 351.619995 188.199997 C 350.547424 187.443436 349.522156 186.621902 348.549988 185.740005 L 341.279999 190.089996 L 336.23999 183.869995 L 342.059998 177.610001 C 341.420013 176.479996 340.859985 175.309998 340.359985 174.089996 L 331.910004 174.820007 L 330.109985 167.020004 L 338.059998 163.949997 C 337.981934 162.651169 337.981934 161.348831 338.059998 160.050003 L 330.109985 156.979996 L 331.910004 149.179993 L 340.359985 149.910004 C 340.853729 148.702805 341.421448 147.527237 342.059998 146.389999 L 336.23999 140.130005 L 341.279999 133.910004 L 348.549988 138.259995 C 349.519989 137.380005 350.549988 136.559998 351.619995 135.800003 L 349.019989 127.730011 L 356.209991 124.230011 L 360 129.820007 L 360 194.179993 Z M 360 190.649994 L 360 133.350006 L 355.540009 126.769989 L 351.440002 128.770004 L 353.970001 136.639999 C 352.115784 137.815735 350.395569 139.190567 348.839996 140.740005 L 341.76001 136.5 L 338.880005 140.050003 L 344.529999 146.139999 C 343.379517 147.984879 342.433929 149.94986 341.709991 152 L 333.470001 151.300003 L 332.440002 155.759995 L 340.170013 158.75 C 339.937225 160.910416 339.937225 163.089584 340.170013 165.25 L 332.440002 168.25 L 333.470001 172.699997 L 341.709991 172 C 342.433929 174.05014 343.379517 176.015121 344.529999 177.860001 L 338.880005 183.960007 L 341.76001 187.5 L 348.839996 183.270004 C 350.396088 184.815948 352.116272 186.187393 353.970001 187.360001 L 351.429993 195.220001 L 355.540009 197.220001 L 360 190.649994 Z M 360 139.080002 L 360 144.789993 L 356.440002 140.990005 C 357.573059 140.258102 358.763641 139.619354 360 139.080002 Z M 360 161.759995 L 345.829987 168.399994 C 343.329987 158.899994 346.600006 148.830002 354.209991 142.619995 L 360 153.119995 L 360 161.759995 Z M 360 184.919998 C 353.887665 182.243118 349.094086 177.240799 346.679993 171.020004 L 360 168.470001 L 360 184.919998 Z M 360 141.279999 L 359.609985 141.479996 L 360 141.880005 L 360 141.279999 Z M 360 159.570007 L 360 157.220001 L 353.700012 145.779999 C 348.523865 150.961761 346.134521 158.304428 347.269989 165.539993 L 360 159.570007 Z M 360 182.720001 L 360 170.490005 L 349.529999 172.5 C 351.820465 176.951126 355.494843 180.537766 360 182.720001 Z M -0 129.820007 L 1 131.279999 C 2.247899 130.915939 3.516946 130.628723 4.8 130.419998 L 6 122 L 14 122 L 15.2 130.419998 C 16.5 130.630005 17.77 130.919998 19 131.279999 L 23.799999 124.220001 L 30.98 127.730011 L 28.379999 135.800003 C 29.450001 136.559998 30.48 137.380005 31.450001 138.259995 L 38.720001 133.910004 L 43.759998 140.130005 L 37.939999 146.389999 C 38.580002 147.520004 39.139999 148.690002 39.639999 149.910004 L 48.09 149.179993 L 49.889999 156.979996 L 41.939999 160.050003 C 42.02 161.350006 42.02 162.649994 41.939999 163.949997 L 49.889999 167.020004 L 48.09 174.820007 L 39.639999 174.089996 C 39.14233 175.295425 38.574699 176.470749 37.939999 177.610001 L 43.759998 183.869995 L 38.720001 190.089996 L 31.450001 185.740005 C 30.48 186.619995 29.450001 187.440002 28.379999 188.199997 L 30.98 196.270004 L 23.790001 199.770004 L 19.01 192.720001 C 17.77 193.080002 16.5 193.369995 15.21 193.580002 L 14 202 L 6 202 L 4.8 193.580002 C 3.516946 193.371277 2.247899 193.084061 1 192.720001 L -0 194.179993 L -0 129.820007 Z M -0 133.350006 L -0 190.649994 L 0.2 190.360001 C 2.22 191.059998 4.35 191.559998 6.54 191.800003 L 7.71 200 L 12.29 200 L 13.46 191.800003 C 15.66 191.550003 17.780001 191.059998 19.809999 190.360001 L 24.459999 197.229996 L 28.559999 195.229996 L 26.030001 187.360001 C 27.88423 186.184265 29.604439 184.809433 31.16 183.259995 L 38.240002 187.5 L 41.119999 183.949997 L 35.470001 177.860001 C 36.610001 176.029999 37.57 174.059998 38.290001 172 L 46.529999 172.699997 L 47.560001 168.240005 L 39.830002 165.25 C 40.060017 163.089432 40.060017 160.910568 39.830002 158.75 L 47.560001 155.75 L 46.529999 151.300003 L 38.290001 152 C 37.566074 149.94986 36.620468 147.984879 35.470001 146.139999 L 41.119999 140.039993 L 38.240002 136.5 L 31.16 140.729996 C 29.603922 139.184052 27.883732 137.812607 26.030001 136.639999 L 28.57 128.779999 L 24.459999 126.779999 L 19.809999 133.639999 C 17.752239 132.929657 15.622883 132.446777 13.46 132.199997 L 12.29 124 L 7.7 124 L 6.53 132.199997 C 4.33 132.449997 2.21 132.940002 0.18 133.639999 L -0.01 133.350006 L -0 133.350006 Z M 34.169998 168.399994 L 17.91 160.779999 C 17.777487 159.92865 17.507288 159.104538 17.110001 158.339996 L 25.790001 142.619995 C 33.415104 148.814148 36.695637 158.906281 34.169998 168.399994 Z M 33.32 171.029999 C 29.769079 180.187424 21.186863 186.418732 11.38 186.960007 L 13.61 169.139999 C 14.373321 168.749893 15.0716 168.243896 15.68 167.639999 L 33.32 171.029999 Z M -0 139.080002 C 3.153966 137.703659 6.558807 136.995453 10 137 C 15 137 19.65 138.470001 23.559999 141 L 11.28 154.100006 C 10.432116 153.963623 9.567884 153.963623 8.72 154.100006 L -0 144.800003 L -0 139.080002 Z M -0 161.759995 L -0 153.110001 L 2.88 158.339996 C 2.48 159.110001 2.22 159.929993 2.09 160.779999 L -0 161.759995 Z M -0 184.919998 L -0 168.470001 L 4.32 167.639999 C 4.92 168.240005 5.62 168.75 6.39 169.139999 L 8.62 186.960007 C 5.65 186.800003 2.72 186.110001 -0 184.919998 Z M 10 156 C 13.313708 156 16 158.686295 16 162 C 16 165.313705 13.313708 168 10 168 C 6.686292 168 4 165.313705 4 162 C 4 158.686295 6.686292 156 10 156 Z M 10 158 C 7.790861 158 6 159.790863 6 162 C 6 164.209137 7.790861 166 10 166 C 12.209139 166 14 164.209137 14 162 C 14 159.790863 12.209139 158 10 158 Z M -0 141.279999 L -0 141.880005 L 9.48 152.009995 C 9.83 151.990005 10.18 151.990005 10.52 152.009995 L 20.389999 141.470001 C 17.169735 139.83931 13.609597 138.992966 10 139 C 6.42 139 3.02 139.820007 -0 141.279999 Z M -0 159.570007 L 0.34 159.410004 C 0.43 159.070007 0.54 158.740005 0.66 158.419998 L -0 157.220001 L -0 159.570007 Z M -0 182.720001 C 1.97 183.669998 4.1 184.350006 6.34 184.710007 L 4.54 170.380005 C 4.254635 170.192322 3.977699 169.992126 3.71 169.779999 L -0 170.479996 L -0 182.720001 Z M 13.66 184.710007 C 20.881456 183.539368 27.11718 179.007339 30.459999 172.5 L 16.290001 169.779999 C 16.02 169.990005 15.74 170.199997 15.45 170.380005 L 13.66 184.710007 Z M 32.73 165.539993 C 33.864697 158.309341 31.479408 150.97142 26.309999 145.789993 L 19.34 158.419998 C 19.459999 158.740005 19.57 159.070007 19.66 159.410004 L 32.73 165.539993 Z M 137.539993 360 L 133.470001 354.299988 L 136.300003 351.470001 L 143.029999 356.269989 C 143.729996 355.709991 144.429993 355.160004 145.169998 354.640015 L 142.270004 346.890015 L 145.729996 344.890015 L 150.979996 351.269989 C 151.800003 350.899994 152.630005 350.549988 153.479996 350.23999 L 152.679993 342.019989 L 156.539993 340.980011 L 159.970001 348.5 C 160.850006 348.350006 161.740005 348.23999 162.639999 348.149994 L 164 340 L 168 340 L 169.360001 348.149994 C 170.259995 348.23999 171.160004 348.350006 172.029999 348.5 L 175.460007 340.980011 L 179.320007 342.019989 L 178.520004 350.23999 C 179.369995 350.549988 180.199997 350.899994 181.020004 351.269989 L 186.270004 344.890015 L 189.729996 346.890015 L 186.830002 354.640015 C 187.570007 355.160004 188.279999 355.709991 188.970001 356.279999 L 195.699997 351.480011 L 198.529999 354.299988 L 194.460007 360 L 137.539993 360 Z M 139.970001 360 L 192.029999 360 L 195.929993 354.540009 L 195.460007 354.070007 L 188.830002 358.799988 C 187.457458 357.555817 185.985947 356.425415 184.429993 355.420013 L 187.289993 347.790009 L 186.710007 347.459991 L 181.529999 353.75 C 179.884567 352.900909 178.17215 352.188507 176.410004 351.619995 L 177.190002 343.519989 L 176.550003 343.339996 L 173.179993 350.76001 C 171.369324 350.370697 169.529877 350.129883 167.679993 350.040009 L 166.330002 342 L 165.669998 342 L 164.330002 350.040009 C 162.449997 350.140015 160.610001 350.369995 158.830002 350.76001 L 155.449997 343.339996 L 154.809998 343.519989 L 155.589996 351.619995 C 153.828003 352.188904 152.115601 352.901276 150.470001 353.75 L 145.289993 347.459991 L 144.710007 347.790009 L 147.570007 355.420013 C 146.009995 356.420013 144.539993 357.559998 143.169998 358.799988 L 136.539993 354.070007 L 136.070007 354.540009 L 139.970001 360 Z M 149.720001 360 C 153.675507 357.306183 158.23941 355.639404 163 355.149994 L 163 360 L 149.720001 360 Z M 182.279999 360 L 169 360 L 169 355.149994 C 173.899994 355.649994 178.419998 357.369995 182.279999 360 Z M 153.619995 360 L 161 360 L 161 357.459991 C 158.42923 357.942017 155.942871 358.797729 153.619995 360 Z M 178.380005 360 C 176.057129 358.797729 173.57077 357.942017 171 357.459991 L 171 360 L 178.380005 360 Z M 358.790009 0 L 357.579987 0 L 359.079987 3.279999 C 356.985718 5.04538 355.04538 6.985718 353.279999 9.079987 L 343.899994 4.779999 L 342.25 7.040009 L 349.25 14.619995 C 347.795105 16.951385 346.543823 19.403778 345.51001 21.950012 L 335.269989 20.75 L 334.410004 23.410004 L 343.399994 28.459991 C 342.741486 31.125 342.313263 33.841675 342.119995 36.580017 L 332 38.600006 L 332 41.399994 L 342.119995 43.419983 C 342.320007 46.200012 342.75 48.919983 343.399994 51.540009 L 334.399994 56.589996 L 335.269989 59.25 L 345.51001 58.049988 C 346.549988 60.589996 347.799988 63.049988 349.25 65.380005 L 342.25 72.959991 L 343.899994 75.220001 L 353.279999 70.919983 C 355.04538 73.014282 356.985718 74.95462 359.079987 76.720001 L 354.779999 86.100006 L 357.040009 87.75 L 360 85.019989 L 360 87.679993 L 357.160004 90.299988 L 352.309998 86.779999 L 356.670013 77.279999 C 355.281189 76.037506 353.962494 74.718811 352.720001 73.330017 L 343.220001 77.690002 L 339.700012 72.839996 L 346.779999 65.160004 C 345.84082 63.548828 344.992798 61.88623 344.23999 60.179993 L 333.859985 61.390015 L 332.01001 55.690002 L 341.119995 50.570007 C 340.727112 48.747681 340.436676 46.904816 340.25 45.049988 L 330 43 L 330 37 L 340.25 34.950012 C 340.440002 33.080017 340.730011 31.230011 341.119995 29.429993 L 332.01001 24.309998 L 333.859985 18.609985 L 344.23999 19.820007 C 344.98999 18.109985 345.839996 16.450012 346.779999 14.839996 L 339.700012 7.160004 L 343.220001 2.309998 L 352.720001 6.670013 C 353.962494 5.281189 355.281189 3.962494 356.670013 2.720001 L 355.420013 0 L 358.790009 0 Z M 360 52.700012 L 353.519989 56.440002 C 351.191162 51.272583 349.991119 45.667938 350 40 C 349.992371 34.332184 351.192322 28.727783 353.519989 23.559998 L 360 27.299988 L 360 52.700012 Z M 360 13.540009 L 360 18.059998 L 357.529999 16.630005 C 358.299988 15.559998 359.130005 14.529999 360 13.540009 Z M 360 66.459991 C 359.130005 65.470001 358.299988 64.440002 357.529999 63.359985 L 360 61.940002 L 360 66.459991 Z M 360 50.390015 L 360 29.609985 L 354.5 26.429993 C 351.150757 35.166687 351.150757 44.833313 354.5 53.570007 L 360 50.390015 Z M 62.419998 360 L 64.580002 360 L 67.690002 353.220001 L 62.84 349.700012 L 55.16 356.779999 C 53.54884 355.84082 51.886223 354.992798 50.18 354.23999 L 51.389999 343.859985 L 45.689999 342.01001 L 40.57 351.119995 C 38.747696 350.727112 36.904808 350.436676 35.049999 350.25 L 33 340 L 27 340 L 24.950001 350.25 C 23.1 350.440002 21.25 350.730011 19.43 351.119995 L 14.31 342.01001 L 8.61 343.859985 L 9.82 354.23999 C 8.11 354.98999 6.45 355.839996 4.84 356.779999 L -0 352.320007 L -0 357.48999 L -0 354.98999 L 4.62 359.25 C 6.951379 357.795105 9.403783 356.543823 11.95 355.51001 L 10.75 345.269989 L 13.41 344.410004 L 18.459999 353.399994 C 21.124998 352.741486 23.841661 352.313263 26.58 352.119995 L 28.6 342 L 31.4 342 L 33.419998 352.119995 C 36.200001 352.320007 38.919998 352.75 41.540001 353.399994 L 46.59 344.399994 L 49.25 345.269989 L 48.049999 355.51001 C 50.59 356.549988 53.049999 357.799988 55.380001 359.25 L 62.959999 352.25 L 65.220001 353.899994 L 62.419998 360 Z M 360 244.509995 L 358.559998 244.309998 L 357.76001 245.690002 L 359.76001 248.229996 L 360 248.399994 L 360 244.509995 Z M 360 258.959991 L 356 258.559998 L 352.839996 259.220001 L 352.559998 260.799988 L 355.309998 262.5 L 360 263.700012 L 360 258.959991 Z M 360 272.290009 L 355.299988 273.48999 L 352.559998 275.200012 L 352.839996 276.779999 L 356 277.440002 L 360 277.040009 L 360 272.290009 Z M 360 287.600006 L 359.76001 287.769989 L 357.76001 290.309998 L 358.559998 291.690002 L 360 291.48999 L 360 287.600006 Z M 360 293.359985 L 357.429993 293.730011 L 355.429993 290.269989 L 358.76001 286.040009 L 360 285.190002 L 360 293.359985 Z M 360 279.049988 L 356.350006 279.410004 L 351.079987 278.309998 L 350.380005 274.369995 L 354.959991 271.529999 L 360 270.230011 L 360 279.049988 Z M 360 265.769989 L 354.959991 264.470001 L 350.380005 261.630005 L 351.079987 257.700012 L 356.350006 256.600006 L 360 256.950012 L 360 265.769989 Z M 360 250.809998 L 358.76001 249.960007 L 355.429993 245.729996 L 357.429993 242.270004 L 360 242.639999 L 360 250.809998 Z M 360 352.309998 L 360 360 L 355.420013 360 L 352.309998 353.220001 L 357.160004 349.700012 L 360 352.320007 L 360 352.309998 Z M 360 354.980011 L 357.040009 352.25 L 354.779999 353.899994 L 357.579987 360 L 360 360 L 360 354.980011 Z"/>
</svg>
